<?xml version="1.0" encoding="utf-8"?>
<!-- Generator: Adobe Illustrator 19.0.0, SVG Export Plug-In . SVG Version: 6.00 Build 0)  -->
<svg version="1.1" id="Layer_1" xmlns="http://www.w3.org/2000/svg" xmlns:xlink="http://www.w3.org/1999/xlink" x="0px" y="0px"
	 viewBox="0 0 64 64" style="enable-background:new 0 0 64 64;" xml:space="preserve">
<style type="text/css">
	.st0{fill:#010101;}
</style>
<path id="XMLID_595_" class="st0" d="M4.7,29.7l7.3,1c0.9,0.1,1.7,0.9,1.7,1.9v1.5c0,0.3-0.2,0.5-0.5,0.5l-7.3-0.3
	c-1.1,0-1.9-1-1.9-2.2v-1.6C3.9,30.1,4.3,29.7,4.7,29.7L4.7,29.7z M8.1,25.7c-0.5,0.1-0.5-0.3-0.3-0.6l5.5-7.6
	c0.2-0.3,0.5-0.5,0.9-0.6c7.2-0.5,11.4-0.6,17-0.4c0.2-0.2,0.3-0.4,0.5-0.5c0.7-0.7,1.4-1.4,2.1-2c-7-0.4-12.2-0.3-20.4,0.3
	c-1,0.1-1.5,0.8-1.8,1.1l-4.5,6.1H1.9c-0.6,0-1.2,0.5-1.4,1.2l-0.5,2C0,25,0.1,25.1,0.3,25.2l3,1.5l-1.2,1.6c-0.7,1-1.1,2.4-1.1,4.1
	V49c0,0.7,0.5,1.2,1.1,1.2h8.2c0.6,0,1.1-0.6,1.1-1.2v-1.6h19.7c-5.2-6.1-6.7-14.7-4.5-22.2C20.9,25.1,15.3,25.2,8.1,25.7L8.1,25.7z
	 M33.6,18.2c7-7.6,18.2-7.6,25.2,0c7,7.6,7,20,0,27.7c-7,7.6-18.2,7.6-25.2,0C26.6,38.2,26.6,25.8,33.6,18.2L33.6,18.2z M35.8,20.6
	c-5.7,6.3-5.7,16.4,0,22.7c5.7,6.3,15,6.3,20.7,0c5.7-6.3,5.7-16.4,0-22.7C50.8,14.4,41.6,14.4,35.8,20.6L35.8,20.6z M45.2,38.7
	l-5.9-0.9l-4-4.4l-0.9-6.6l0.9-0.9l5.4,5.9c0.3,0.4,0.8,0.4,1.2,0l4.1-4.5c0.3-0.4,0.3-0.9,0-1.3l-5.4-5.9l0.9-0.9l6,0.9l4,4.4
	l0.8,6.6l6,6.6c-0.6,1.7-1.6,3.2-2.8,4.6c-1.3,1.4-2.7,2.4-4.2,3.1L45.2,38.7L45.2,38.7z"/>
</svg>
