<?xml version="1.0" encoding="utf-8"?>
<!-- Generator: Adobe Illustrator 19.0.0, SVG Export Plug-In . SVG Version: 6.00 Build 0)  -->
<svg version="1.1" id="Layer_1" xmlns="http://www.w3.org/2000/svg" xmlns:xlink="http://www.w3.org/1999/xlink" x="0px" y="0px"
	 viewBox="0 0 265.7 300" style="enable-background:new 0 0 265.7 300;" xml:space="preserve">
<g id="XMLID_57_">
	<g id="XMLID_14_">
		<path id="XMLID_15_" d="M207.5,0c0,0-31.9,25.6-42.3,37.1c6.2,1.5,12.1,3.5,17.9,5.8L207.5,0z"/>
		<path id="XMLID_24_" d="M253.8,26.9c0,0-26.9,21.6-39.3,34c4.7,3.6,9.2,7.5,13.3,11.8L253.8,26.9z"/>
		<path id="XMLID_40_" d="M227.3,73.7c-4.2-4.3-8.8-8.3-13.6-12c-9.5-7.3-19.9-13.3-31.2-17.8c-5.9-2.4-12-4.3-18.2-5.9
			c-10.1-2.4-20.6-3.8-31.4-3.8C59.5,34.3,0,93.8,0,167.2S59.5,300,132.8,300c73.4,0,132.8-59.5,132.8-132.8
			C265.7,130.7,251,97.7,227.3,73.7z M132.8,295.5c-70.9,0-128.4-57.5-128.4-128.4S61.9,38.8,132.8,38.8c9.8,0,19.4,1.1,28.6,3.2
			c6.5,1.5,12.8,3.4,18.9,5.9c10.9,4.4,21.1,10.2,30.4,17.2c5.1,3.9,9.9,8.1,14.3,12.7c22.4,23.1,36.3,54.6,36.3,89.4
			C261.2,238.1,203.7,295.5,132.8,295.5z"/>
		<path id="XMLID_41_" d="M132.8,100c-1.9,0-3.8,0.1-5.6,0.3c-18,31.6-35.7,63.4-35.7,63.4l-12.9-30.8l-12.4,31.8L93,201.5
			l56.5-99.4C144.2,100.7,138.6,100,132.8,100z"/>
		<path id="XMLID_42_" d="M178.7,118.2c-19.6,34.3-40.8,72.4-40.8,72.4L125,159.8l-12.4,31.8l26.9,36.8l52.7-92.8
			C188.6,129.1,184.1,123.2,178.7,118.2z"/>
		<path id="XMLID_43_" d="M147.2,91.1c5.7,1,11.8-2.6,13.5-12.3c1.9-10.5-3-17.1-9.7-18.3l0,0c-5.7-1-12,2.7-13.7,12.2
			C135.7,81.9,139.9,89.8,147.2,91.1z"/>
		<path id="XMLID_46_" d="M221.4,84.1c-4.5-4.8-9.5-9.3-14.7-13.3c-9-6.9-19.1-12.6-29.8-16.8c-6.2-2.4-12.7-4.4-19.3-5.7
			c-8-1.6-16.2-2.5-24.6-2.5c-67,0-121.4,54.3-121.4,121.4s54.3,121.4,121.4,121.4c67,0,121.4-54.3,121.4-121.4
			C254.2,135,241.7,105.8,221.4,84.1z M173.3,82.2c6.8-9.5,18.3-8.4,26.8-2.2c3.7,2.6,6.4,6,7.6,7.4c-0.9,1.5-2.4,3.9-4.2,7.1
			l-1.4-0.6c2.7-5.9,0.5-9.8-3.8-12.8c-6.4-4.7-14.6-3.5-20,4c-4.3,5.9-5.7,15.5,2.6,21.4c1.4,1,2.9,1.7,4.2,1.9
			c1.2,0.2,2.2-0.1,3.3-1.6l2.4-3.4c2.2-3,2.1-3.5-1.9-6.9l0.9-1.2l11.1,8l-0.9,1.2c-2.8-1.4-3.1-1.3-4.9,1.2l-2.5,3.4
			c-1,1.4-2,2.8-2.5,4c-3.1-1.3-7.4-2.9-11-5.5C169.8,100.7,167.4,90.4,173.3,82.2z M202,167.2c0,38.2-31,69.2-69.2,69.2
			c-38.2,0-69.2-31-69.2-69.2c0-36.7,28.6-66.7,64.7-69c1.5-0.1,2.9-0.2,4.4-0.2c6.1,0,12,0.8,17.7,2.3c11.1,2.9,21.1,8.5,29.3,16.1
			c5.4,5,9.9,10.8,13.5,17.2C198.8,143.5,202,155,202,167.2z M131.4,73c1.6-9.1,9.9-16.1,21-14.2l0,0c9,1.6,16,9.6,14.2,19.6
			c-1.9,10.8-11.2,16.1-20.9,14.3C136.2,91.1,129.7,82.7,131.4,73z M89,66.3l18.7,20.3l3.9-27.4l8.7-2.7l0.5,1.5
			c-4.2,1.7-4.5,2-2.8,6.7l6,17.4c1.8,5.1,2,5.3,6.4,4.4l0.4,1.4L117.4,92l-0.4-1.4c3.9-1.7,4-2.1,2.3-7.1L113,64.1l-0.2,0.1
			L109,94.4l-1,0.3L88.7,72.5l-0.1,0l3.6,13.9c1.1,4.1,1.7,6.1,2.4,8c0.8,2.3,2.1,2.2,5.5,1.5l0.5,1.5L88.8,101l-0.5-1.5
			c2.8-1.2,3.5-2.2,3.3-4.2c-0.3-1.8-0.6-4-1.9-9.3l-2.3-10c-1.5-6.4-1.9-6.6-6.5-5.6L80.5,69L89,66.3z M63.1,81.9
			c1.9-1.6,4-2.6,5.9-3.4c1.3,1.2,2.9,2.7,5.3,4.9l-1,1.2c-2.8-1.9-6.4-3.7-9.7-0.9c-3,2.5-2.6,5.8-0.8,7.9c2.3,2.7,5.3,2.5,9.8,1.4
			c4.8-1.2,9.8-2.3,13.4,2c3.5,4.2,2.7,10.5-2.7,15.1c-1.6,1.4-3.2,2.2-4.5,2.7c-1.3,0.5-2.1,0.7-2.7,0.8c-0.9-0.5-4.5-3.6-6.3-5.3
			l0.9-1.4c2.7,1.9,8.1,4.3,12.2,0.9c2.9-2.4,3.1-5.7,0.8-8.4c-2.4-2.8-5.6-2.4-10-1.4c-3.9,0.9-9.4,2.2-13-2.1
			C57.5,92.2,58,86.3,63.1,81.9z M64.5,252.8c-1.3-0.9-5.3-3.4-8-6.1c-9.4-9.6-7.2-20.1-1.4-25.7c7.7-7.5,18.7-6.2,27.1,2.5
			c3.1,3.2,4.8,6.7,5.7,7.9c-1.8,2.3-3.1,4.1-4.9,6.3l-1.3-0.9c3-4.9,2.2-9-1.7-13c-6.2-6.4-14.6-4.7-20,0.5
			c-6.9,6.7-7.4,15.4-1.7,21.2c3.8,3.9,7.9,4,13.6,2.3l0.6,1.5C70.2,250.5,66.3,252.3,64.5,252.8z M147.4,276.2l-25.5,0.6l0-1.5
			c4.7-0.4,5.1-0.9,5-5.1l-0.4-19.9c-0.1-4.5-0.5-4.8-4.2-5l-0.4,1.1c-4.1-1.2-4.6-1.2-6.2,2.8l-7.4,18.8c-1.6,4-1.2,4.4,2.6,6.3
			l-0.5,1.4l-13.4-5.2l0.5-1.4c4.3,1.3,4.8,1.2,6.4-2.8l3.6-9.3l-16.6-6.5l-3.6,9.3c-1.6,4-1.3,4.4,2.6,6.3l-0.5,1.4l-13.2-5.1
			l0.5-1.4c4,1.2,4.5,1.1,6-2.9l7.4-18.8c1.6-4,1.3-4.4-2.6-6.3l0.6-1.4l13,5.1l-0.6,1.4c-3.9-1.1-4.4-1.1-5.9,2.9l-2.9,7.4
			l16.6,6.5l2.9-7.4c1.6-4,1.3-4.4-2.5-6.2l0.6-1.4l12.6,4.9l0-1.1l23.5-0.5c0.1,1.3,0.4,4.7,0.7,7.5l-1.6,0.2
			c-0.5-2.1-1.1-3.3-1.8-4.4c-0.8-1.1-2.2-1.4-5.8-1.3l-3.9,0.1c-1.7,0-1.8,0.2-1.8,1.7l0.2,11.4l4.8-0.1c4.7-0.1,5-0.5,5.6-4l1.6,0
			l0.2,10l-1.6,0c-0.8-3.7-1.2-4-5.7-3.9l-4.8,0.1l0.2,9.3c0.1,2.4,0.4,3.5,1.3,4.1c1,0.6,3,0.5,5.3,0.5c3.8-0.1,5.3-0.5,6.5-1.8
			c0.9-1.1,1.8-2.9,2.5-5l1.6,0.2C148.7,269.8,147.8,274.5,147.4,276.2z M186.7,262.6c-1.3,0.9-5.1,3.7-8.7,5.1
			c-12.4,5.1-21.3-0.9-24.3-8.3c-4.1-9.9,1.3-19.7,12.5-24.2c4.1-1.7,8.1-2,9.5-2.3c1.5,2.5,2.7,4.4,4,6.9l-1.3,0.9
			c-3.4-4.7-7.5-5.4-12.8-3.3c-8.2,3.4-9.9,11.8-7,18.8c3.6,8.9,11.5,12.6,19,9.5c5-2,6.6-5.8,7.2-11.7l1.6,0
			C186.7,256.5,186.9,260.7,186.7,262.6z M216.6,237.9c-5.8-0.3-12.1-0.8-19.3-1.3c-1.9-0.2-2.5,0.2-3.1,0.9l6.7,6.7
			c3.2,3.2,3.8,3.1,7.1,0.2l1,1l-9.9,9.9l-1-1c2.6-3,2.6-3.7-0.5-6.8l-13.9-13.9c-3.3-3.3-3.8-3.2-6.9-0.4l-1.1-1.1l9.7-9.8l1.1,1.1
			c-2.6,3-2.7,3.6,0.5,6.9l6.2,6.2c0.7-1.1,0.8-2.3,1-4.4c0.1-4.2,0.1-8.9-0.2-12.2c-0.2-2.4-0.6-2.8-2.6-1.2l-0.8,0.7l-1.1-1.1
			l9.1-9.1l1.1,1.1c-2.5,3-3.1,4.4-3.4,8.7c-0.2,2.9-0.2,7.9-0.3,12.5c6.1,0.6,14.4,1.1,18.6,1.2c3.9,0.1,5.1-0.3,7-1.8l1,1
			L216.6,237.9z"/>
	</g>
</g>
</svg>
