<?xml version="1.0" encoding="utf-8"?>
<!-- Generator: Adobe Illustrator 19.0.0, SVG Export Plug-In . SVG Version: 6.00 Build 0)  -->
<svg version="1.1" id="Layer_1" xmlns="http://www.w3.org/2000/svg" xmlns:xlink="http://www.w3.org/1999/xlink" x="0px" y="0px"
	 viewBox="11 0 322 300" style="enable-background:new 11 0 322 300;" xml:space="preserve">
<style type="text/css">
	.st0{fill:none;}
</style>
<path class="st0" d="M-83,100"/>
<g>
	<circle cx="156.5" cy="84.4" r="84.4"/>
	<circle cx="290.5" cy="67.3" r="42.6"/>
	<path d="M198.5,186.4c0,0,46.7-60.6,52-66.4c5.3-5.9,19.7-6.5,25.3-2.6c5.6,3.8,19.1,16.5,21.8,19.4c2.6,2.6,9.4,12.6,0,24.7
		c-9.4,12.1-79.1,89.4-79.1,89.4L198.5,186.4z"/>
	<path d="M221.2,284.6c1.8,6.5-2.4,13.2-8.8,15l0,0c-6.8,1.8-13.5-2.1-15.3-8.5l-24.4-90.8c-1.8-6.5,2.4-13.2,8.8-15l0,0
		c6.8-1.8,13.5,2.1,15.3,8.5L221.2,284.6z"/>
	<path d="M160.6,183.4c0,0-38.5-12.9-48.5-15.6c-10-2.6-20.9-5.9-30.3,5c-9.4,10.9-63.8,81.1-67.3,84.7c-3.5,3.5-5.6,12.6,0,17.6
		s20.6,19.4,24.1,21.2c3.5,1.8,16.8,8.8,29.1-6.2s50.6-60.3,50.6-60.3l60.6,16.5L160.6,183.4z"/>
</g>
</svg>
