<?xml version="1.0" encoding="utf-8"?>
<!-- Generator: Adobe Illustrator 25.2.1, SVG Export Plug-In . SVG Version: 6.00 Build 0)  -->
<svg version="1.1" id="Layer_1" xmlns="http://www.w3.org/2000/svg" xmlns:xlink="http://www.w3.org/1999/xlink" x="0px" y="0px"
	 viewBox="0 0 409.1 300" style="enable-background:new 0 0 409.1 300;" xml:space="preserve">
<style type="text/css">
	.st0{fill:none;}
	.st1{fill:#FFA200;}
</style>
<path class="st0" d="M7.4,6.5"/>
<g>
	<g>
		<path class="st1" d="M383.5,78c-6.4-3.8-32.2,0-32.2,0l-6.4,10.3l-1.2-14.6l-9-6h-38.6l-36-36h-46.3V20.1h21.1c0,0,7-2.2,7-8.7
			c0-7.7-2.3-9.4-7-10.6c-7.9-1.9-95.7,0-95.7,0s-6.4,1.2-6.4,10.3s7.7,9,7.7,9h23.1v11.6h-43.8L97.9,53.6H66.8L45.1,72.9l-1.2,57.9
			H24.6V61.3c0,0-1.2-9-10.3-10.3c-9-1.3-14.2,9-14.2,9l1.2,191.7c0,0,0,7.7,11.6,7.7s11.6-7.7,11.6-7.7v-72.1h19.3l1.2,72.1
			l21.7,20.5h49.1l41.2,27.1c0,0,154.4,1.2,162.2,0c7.7-1.2,20.5-21.9,20.5-21.9l1.2-15.5l10.3,18.1c0,0,29.9,0.9,34.8,0
			c4.4-0.8,23.1-43.8,23.1-43.8V117.9C409.2,117.9,389.9,81.8,383.5,78z M384.8,229.9c0,0-6.4,24.5-14.1,27.1
			c-7.8,2.6-16.7-20.5-16.7-20.5h-33.5l-5.2,5.2v27l-6.4,6.4H166l-43-27H78.1c-5.2,0-9.4-4.3-9.4-9.4V87.4c0-5.2,4.3-9.4,9.4-9.4
			h32.8l20.4-23.1h118.4l38.6,37.4h27.1l1.2,21.9l5.2,5.2h28.3c0,0,6.4-19.3,15.5-19.3c9,0,20.5,23.1,20.5,23.1L384.8,229.9z"/>
	</g>
	<g>
		<path class="st1" d="M122.5,142.2l8.4,2.7c-1.2,4.7-3.4,8.2-6.4,10.5s-6.8,3.4-11.4,3.4c-5.7,0-10.4-2-14.1-5.8
			c-3.6-3.9-5.5-9.2-5.5-16c0-7.2,1.9-12.8,5.5-16.7c3.7-3.9,8.5-5.9,14.5-5.9c5.3,0,9.5,1.6,12.9,4.7c2,1.9,3.4,4.5,4.4,7.9
			l-8.6,2.1c-0.5-2.2-1.6-3.9-3.2-5.3c-1.7-1.2-3.5-2-5.9-2c-3.2,0-5.8,1.1-7.8,3.4c-2,2.3-3,6-3,11.1c0,5.4,0.9,9.3,2.9,11.6
			s4.5,3.4,7.6,3.4c2.3,0,4.3-0.7,5.9-2.2C120.7,147.7,121.8,145.4,122.5,142.2z"/>
		<path class="st1" d="M138.5,158.1v-43h8.7V132h17v-16.9h8.7v43h-8.7v-18.8h-17v18.8H138.5L138.5,158.1z"/>
		<path class="st1" d="M181.8,158.1v-43h31.9v7.3h-23.3v9.5H212v7.3h-21.6v11.7h24v7.3h-32.6V158.1L181.8,158.1z"/>
		<path class="st1" d="M249.3,142.2l8.4,2.7c-1.2,4.7-3.4,8.2-6.4,10.5s-6.8,3.4-11.4,3.4c-5.7,0-10.4-2-14.1-5.8
			c-3.6-3.9-5.5-9.2-5.5-16c0-7.2,1.9-12.8,5.5-16.7c3.7-3.9,8.5-5.9,14.5-5.9c5.3,0,9.5,1.6,12.9,4.7c2,1.9,3.4,4.5,4.4,7.9
			l-8.6,2.1c-0.5-2.2-1.6-3.9-3.2-5.3c-1.7-1.2-3.5-2-5.9-2c-3.2,0-5.8,1.1-7.8,3.4c-2,2.3-3,6-3,11.1c0,5.4,0.9,9.3,2.9,11.6
			s4.5,3.4,7.6,3.4c2.3,0,4.3-0.7,5.9-2.2C247.5,147.7,248.6,145.4,249.3,142.2z"/>
		<path class="st1" d="M265.3,158.1v-43h8.7v19.1l17.5-19.1h11.6l-16.2,16.7l17,26.3h-11.2L280.9,138l-7.1,7.2v13h-8.5V158.1z"/>
		<path class="st1" d="M95,219.8v-43h31.9v7.3h-23.1v9.5h21.6v7.3h-21.6v11.7h24v7.3H95.1L95,219.8L95,219.8z"/>
		<path class="st1" d="M135.2,219.8v-43h8.4l17.6,28.7v-28.7h8.1v43h-8.7l-17.3-28v28H135.2L135.2,219.8z"/>
		<path class="st1" d="M198.5,204.1v-7.3h18.7v17.1c-1.9,1.8-4.5,3.3-7.9,4.7c-3.4,1.3-7,2-10.5,2c-4.5,0-8.4-0.9-11.7-2.8
			c-3.3-1.9-5.8-4.6-7.6-8.1c-1.7-3.5-2.5-7.4-2.5-11.4c0-4.5,0.9-8.4,2.8-11.9s4.7-6.1,8.2-8c2.8-1.5,6.2-2.2,10.3-2.2
			c5.3,0,9.5,1.1,12.6,3.3c3,2.3,5,5.3,5.8,9.2l-8.6,1.7c-0.6-2.1-1.8-3.7-3.4-5c-1.7-1.2-3.7-1.9-6.2-1.9c-3.8,0-6.8,1.2-9,3.6
			c-2.3,2.4-3.3,6-3.3,10.7c0,5.1,1.1,8.9,3.4,11.5s5.2,3.8,8.9,3.8c1.9,0,3.6-0.3,5.5-1s3.4-1.6,4.7-2.6V204L198.5,204.1
			L198.5,204.1z"/>
		<path class="st1" d="M224.9,219.8v-43h8.7v43H224.9L224.9,219.8z"/>
		<path class="st1" d="M242,219.8v-43h8.4l17.6,28.7v-28.7h8.1v43h-8.7l-17.3-28v28H242L242,219.8z"/>
		<path class="st1" d="M285.2,219.8v-43h31.9v7.3h-23.2v9.5h21.5v7.3h-21.6v11.7h24v7.3h-32.6V219.8L285.2,219.8z"/>
	</g>
</g>
</svg>
