<?xml version="1.0" encoding="utf-8"?>
<!-- Generator: Adobe Illustrator 19.0.0, SVG Export Plug-In . SVG Version: 6.00 Build 0)  -->
<svg version="1.1" id="Layer_1" xmlns="http://www.w3.org/2000/svg" xmlns:xlink="http://www.w3.org/1999/xlink" x="0px" y="0px"
	 viewBox="0 0 64 64" style="enable-background:new 0 0 64 64;" xml:space="preserve">
<g id="XMLID_305_">
	<path id="XMLID_325_" d="M59.5,32c-2.6-2.8-6-4.4-9.4-4.8c-2.6-0.3-5.3,0.2-7.8,1.4l-0.8-1.5L31.4,8.3c-5.4-10-11-0.2-11-0.2
		l-10.9,19l-0.7,1.2L1.6,40.8c-5.7,9.8,5.6,9.8,5.6,9.8h1.6h26c0.7,1.7,1.7,3.3,3,4.6c3,3.2,6.9,4.8,10.9,4.8h0
		c3.9,0,7.9-1.6,10.9-4.8C65.5,48.9,65.5,38.4,59.5,32z M39.7,53.2c-0.7-0.8-1.3-1.6-1.9-2.6c-3-5.2-2.3-12.1,1.9-16.6
		c1.2-1.3,2.6-2.2,4-2.9c2-0.9,4.2-1.2,6.4-1c2.7,0.3,5.3,1.6,7.4,3.9c4.9,5.3,4.9,13.9,0,19.2C52.6,58.5,44.6,58.5,39.7,53.2z
		 M30.5,47.4h-9v-8.3h9V47.4z M30.5,35.7h-9v-8.5V16.4h9v10.8V35.7z"/>
	<path id="XMLID_331_" d="M53.9,42.9l-0.7-5.6L50.1,34l-0.4-0.4l-5.2-0.8l0,0l-0.7,0.8l2.9,3.1l1.7,1.9c0.3,0.3,0.3,0.8,0,1.1
		l-0.1,0.1l-3.4,3.7c-0.3,0.3-0.7,0.3-1,0l-4.6-5l-0.7,0.8l0.7,5.6l3.5,3.7l5.1,0.7l0.2,0.2l1.1,1.1l3.9,4.2
		c1.3-0.6,2.6-1.5,3.6-2.6c1.1-1.1,1.9-2.5,2.4-3.9L53.9,42.9z"/>
</g>
</svg>
