<?xml version="1.0" encoding="utf-8"?>
<!-- Generator: Adobe Illustrator 19.0.0, SVG Export Plug-In . SVG Version: 6.00 Build 0)  -->
<svg version="1.1" id="Layer_1" xmlns="http://www.w3.org/2000/svg" xmlns:xlink="http://www.w3.org/1999/xlink" x="0px" y="0px"
	 viewBox="-62.6 46.5 425.1 300" style="enable-background:new -62.6 46.5 425.1 300;" xml:space="preserve">
<style type="text/css">
	.st0{fill:none;}
</style>
<path class="st0" d="M-6,232.2"/>
<g>
	<g>
		<path d="M16.7,241.3l31.6-89.8h29.2l31.6,89.8H80.6l-3.3-11.9H48.7l-3.4,11.9H16.7z M54.1,210.6h18.1l-9.1-31L54.1,210.6z"/>
		<path d="M117.4,241.3v-89.8h37c7.9,0,13.7,0.1,17.3,0.6c3.5,0.4,6.8,1,9.4,2c4.5,1.7,7.9,4.4,10.3,7.9c2.4,3.7,3.7,7.9,3.7,13.2
			c0,4.1-0.9,7.7-2.7,10.8c-1.8,3-4.5,5.5-8.1,7.5c4.8,1.7,8.4,4.3,10.5,7.7c2.1,3.4,3.4,7.8,3.4,13.3c0,5.2-1,9.9-3.3,13.9
			s-5.4,6.9-9.6,9.1c-2.8,1.6-6.1,2.6-9.8,3.1c-3.7,0.6-9.8,0.9-18.3,0.9C157.2,241.3,117.4,241.3,117.4,241.3z M145.5,187.3h11.9
			c4,0,6.8-0.6,8.5-1.8c1.7-1.3,2.4-3.1,2.4-6.1c0-3-0.9-5-2.6-6.1c-1.8-1-5.7-1.7-12.2-1.7h-8.1L145.5,187.3L145.5,187.3z
			 M145.5,220.3h13.5c4.4,0,7.5-0.6,9.5-2c1.8-1.4,2.8-3.4,2.8-6.4s-0.9-5.1-2.8-6.4c-2-1.3-5.1-2-9.6-2h-13.2L145.5,220.3
			L145.5,220.3L145.5,220.3z"/>
		<path d="M203,213.2h28.1c0.7,3.3,2.1,5.5,4.3,7.1c2.1,1.4,5.1,2.1,9.1,2.1c3.3,0,6.1-0.6,7.9-1.8c1.8-1.3,2.8-2.7,2.8-4.8
			c0-3.3-4.1-5.8-12.2-7.9c-1.7-0.4-2.8-0.7-3.8-0.9c-6.5-1.6-11.8-3-15.7-4.5c-4-1.4-6.8-2.7-8.6-4c-3.4-2.4-6.1-5.4-7.8-8.9
			c-1.7-3.4-2.6-7.4-2.6-11.9c0-8.9,3.3-16,10.1-21c6.8-5.1,16-7.7,27.8-7.7c11.6,0,20.7,2.4,27.4,7.2c6.7,4.8,10.3,11.9,11.3,21
			h-27.5c-0.4-2.7-1.7-4.7-3.4-5.8c-2-1.4-4.5-2-8.1-2c-3,0-5.4,0.4-6.9,1.6c-1.6,1-2.3,2.6-2.3,4.7c0,3,4,5.4,11.9,7.4
			c0.7,0.1,1.3,0.3,1.7,0.4c1.3,0.3,2.8,0.7,5.1,1.3c10.3,2.7,17.3,5,20.5,7.2c4,2.7,6.9,5.7,8.8,9.1s2.7,7.4,2.7,11.9
			c0,9.9-3.4,17.4-10.3,23c-6.9,5.2-16.9,7.9-29.9,7.9c-11.9,0-21.4-2.7-28.3-7.9C207.7,230.5,203.7,223,203,213.2z"/>
	</g>
	<path d="M149.9,46.5C53.4,46.5-25,113.6-25,196.5s78.4,149.9,175,149.9s175.2-67.2,175.2-150.1S246.6,46.5,149.9,46.5z
		 M149.9,329.7c-87,0-157.6-59.7-157.6-133.2S62.8,63.3,149.9,63.3S307.4,123,307.4,196.5S236.9,329.7,149.9,329.7z"/>
	<g>
		<path d="M343.3,196.2c0,43.2-18.7,82.8-49.3,112.8l9.9,17.1c36.3-33.7,58.7-79.5,58.7-129.8c0-50-22-95.5-58.1-129.2L294.5,84
			C325,113.9,343.3,153.2,343.3,196.2z"/>
		<path d="M-43.2,196.2c0-42.9,18.4-82.2,48.6-112l-9.9-17.1c-35.9,33.7-58.1,79.2-58.1,129.2c0,50.3,22.2,96.1,58.7,129.8L6,309
			C-24.4,279-43.2,239.5-43.2,196.2z"/>
	</g>
</g>
</svg>
