<?xml version="1.0" encoding="utf-8"?>
<!-- Generator: Adobe Illustrator 19.2.1, SVG Export Plug-In . SVG Version: 6.00 Build 0)  -->
<svg version="1.1" id="Layer_1" xmlns="http://www.w3.org/2000/svg" xmlns:xlink="http://www.w3.org/1999/xlink" x="0px" y="0px"
	 viewBox="0 0 64 64" style="enable-background:new 0 0 64 64;" xml:space="preserve">
<style type="text/css">
	.st0{enable-background:new    ;}
</style>
<path class="st0" d="M0,0"/>
<g>
	<g id="XMLID_74_">
		<path d="M60,20.8c-1-0.6-5,0-5,0l-1,1.6l-0.2-2.3l-1.4-0.9h-6l-5.6-5.6h-7.2v-1.8h3.3c0,0,1.1-0.3,1.1-1.4c0-1.2-0.4-1.5-1.1-1.7
			c-1.2-0.3-15,0-15,0s-1,0.2-1,1.6s1.2,1.4,1.2,1.4h3.6v1.8h-6.9l-3.4,3.4h-4.9L7,20L6.9,29h-3V18.1c0,0-0.2-1.4-1.6-1.6
			C0.8,16.3,0,17.9,0,17.9l0.2,30c0,0,0,1.2,1.8,1.2s1.8-1.2,1.8-1.2V36.6h3L7,47.9l3.4,3.2h7.7l6.4,4.2c0,0,24.2,0.2,25.4,0
			c1.2-0.2,3.2-3.4,3.2-3.4l0.2-2.4l1.6,2.8c0,0,4.7,0.1,5.4,0c0.7-0.1,3.6-6.9,3.6-6.9V27C64,27,61,21.3,60,20.8z M60.2,44.5
			c0,0-1,3.8-2.2,4.2c-1.2,0.4-2.6-3.2-2.6-3.2h-5.2l-0.8,0.8v4.2l-1,1H26l-6.7-4.2h-7c-0.8,0-1.5-0.7-1.5-1.5V22.2
			c0-0.8,0.7-1.5,1.5-1.5h5.1l3.2-3.6h18.5l6,5.9h4.2l0.2,3.4l0.8,0.8h4.4c0,0,1-3,2.4-3c1.4,0,3.2,3.6,3.2,3.6L60.2,44.5z"/>
	</g>
	<g>
		<path d="M16.8,28.4c1.1-0.2,2.5-0.3,4-0.3c2.5,0,4.1,0.4,5.3,1.4c1.4,1,2.2,2.6,2.2,4.9c0,2.5-0.9,4.2-2.2,5.3
			c-1.4,1.1-3.5,1.7-6,1.7c-1.5,0-2.6-0.1-3.3-0.2V28.4z M19.8,39c0.3,0.1,0.7,0.1,1,0.1c2.7,0,4.4-1.4,4.4-4.6
			c0-2.7-1.6-4.1-4.1-4.1c-0.7,0-1.1,0.1-1.3,0.1V39z"/>
		<path d="M31.3,30.7h-3.5v-2.5h10v2.5h-3.5v10.5h-3V30.7z"/>
		<path d="M47.4,40.9c-0.5,0.3-1.8,0.6-3.3,0.6c-4.5,0-6.8-2.8-6.8-6.5c0-4.4,3.2-6.9,7.1-6.9c1.5,0,2.7,0.3,3.2,0.6L46.9,31
			c-0.6-0.3-1.4-0.5-2.5-0.5c-2.3,0-4.1,1.4-4.1,4.3c0,2.6,1.5,4.2,4.2,4.2c0.9,0,1.9-0.2,2.5-0.4L47.4,40.9z"/>
	</g>
</g>
</svg>
