<?xml version="1.0" encoding="utf-8"?>
<!-- Generator: Adobe Illustrator 19.0.0, SVG Export Plug-In . SVG Version: 6.00 Build 0)  -->
<svg version="1.1" id="Layer_1" xmlns="http://www.w3.org/2000/svg" xmlns:xlink="http://www.w3.org/1999/xlink" x="0px" y="0px"
	 viewBox="0 0 64 64" style="enable-background:new 0 0 64 64;" xml:space="preserve">
<g id="XMLID_484_">
	<path id="XMLID_485_" d="M63.9,29.4c-0.4-4.1-1.5-8-3.4-11.6c-1.8-3.5-4.2-6.5-7.2-9c-3-2.5-6.3-4.4-9.9-5.6
		c-2.7-0.9-5.4-1.3-8.2-1.4c-0.7-0.6-1.5-0.9-2.4-0.8c-0.8,0.1-1.6,0.5-2.1,1.1c-0.6,0.7-0.9,1.5-0.9,2.5l0,0.1
		c0.1,1,0.6,1.9,1.4,2.5c0.6,0.4,1.4,0.7,2.2,0.6C34,7.8,34.7,7.5,35.2,7c2.1,0,4.1,0.4,6,0.9c9.4,2.7,16.8,11.2,17.8,22
		c1.3,13.9-8.5,26.4-21.9,27.8c-13.4,1.4-25.4-8.8-26.7-22.8c-0.6-6.2,1-12.1,4.1-16.8l0.4,7.8c0.1,1.4,1.2,2.5,2.6,2.4l0.1,0
		c1.3-0.1,2.3-1.3,2.2-2.7l-0.7-12.8L19,10.6c0-0.7-0.4-1.4-0.8-1.8c-0.3-0.4-0.8-0.7-1.3-0.8C16.5,8,16,8,15.6,8.1L1.8,12.4
		c-1.3,0.4-2,1.8-1.7,3.2c0.3,1.2,1.4,1.9,2.6,1.8l0.5-0.1l7.3-2.2c-1.7,2.5-3,5.3-3.9,8.3c-1.2,3.9-1.6,8-1.2,12.1
		c0.4,4.1,1.5,8,3.4,11.6c1.8,3.5,4.2,6.5,7.2,9c2.9,2.5,6.3,4.4,9.9,5.5c3.8,1.2,7.7,1.6,11.6,1.2c3.9-0.4,7.7-1.6,11.1-3.6
		c3.3-1.9,6.2-4.4,8.7-7.5c2.4-3.1,4.2-6.5,5.3-10.3C63.9,37.5,64.2,33.5,63.9,29.4z"/>
	<path id="XMLID_486_" d="M21.9,42c0,1.6,1.3,2.9,2.8,2.9c0.7,0,1.4-0.3,1.9-0.8c1.6,0.3,3.8,0.5,6,0.5c2.4,0,4.6-0.2,6.3-0.5
		c1.5-0.3,3.2-0.8,3.2-2c0-1.2-1.7-1.7-3.2-2c-1.7-0.3-3.9-0.5-6.3-0.5c-2.2,0-4.3,0.2-6,0.5l-0.4-0.3c0.3-2.1,0.6-5.4,0.6-8.9
		c0-2.8-0.1-5.5-0.4-7.5l0-0.2c-0.1-1-0.3-1.9-0.4-2.4c-0.1-0.4-0.4-1.5-1.3-1.5c-0.9,0-1.2,1.1-1.3,1.5c-0.2,0.6-0.3,1.4-0.4,2.4
		l-0.1,0.5c-0.2,2-0.3,4.5-0.3,7.2c0,3.5,0.2,6.9,0.6,8.9C22.3,40.1,21.9,41,21.9,42z"/>
</g>
</svg>
