<?xml version="1.0" encoding="utf-8"?>
<!-- Generator: Adobe Illustrator 19.0.0, SVG Export Plug-In . SVG Version: 6.00 Build 0)  -->
<svg version="1.1" id="Layer_1" xmlns="http://www.w3.org/2000/svg" xmlns:xlink="http://www.w3.org/1999/xlink" x="0px" y="0px"
	 viewBox="0 0 64 64" style="enable-background:new 0 0 64 64;" xml:space="preserve">
<g id="XMLID_272_">
	<path id="XMLID_273_" d="M46.6,6.1h-4.3v3.1h4.3c2.3,0,4.2,1.9,4.2,4.2v43.2c0,2.3-1.9,4.2-4.2,4.2H17.4c-2.3,0-4.2-1.9-4.2-4.2
		V13.4c0-2.3,1.9-4.2,4.2-4.2h4.3V6.1h-4.3c-4,0-7.3,3.3-7.3,7.3v43.2c0,4,3.3,7.3,7.3,7.3h29.3c4,0,7.3-3.3,7.3-7.3V13.4
		C53.9,9.4,50.7,6.1,46.6,6.1z"/>
	<path id="XMLID_283_" d="M26.3,15.9h11.4c1.8,0,3.2-1.4,3.2-3.2V7.4c0-0.9-0.7-1.6-1.6-1.6h-1.5v0C37.8,2.6,35.2,0,32,0
		c-3.2,0-5.8,2.6-5.8,5.7v0h-1.5c-0.9,0-1.6,0.7-1.6,1.6v5.3C23.1,14.4,24.5,15.9,26.3,15.9z M28.7,5.7c0-1.8,1.5-3.3,3.3-3.3
		c1.8,0,3.3,1.5,3.3,3.3v0L28.7,5.7L28.7,5.7z"/>
	<path id="XMLID_286_" d="M46.7,37.6l0.2-0.3c-2.2,0-4.3,0-6.4,0l-0.3,0.2c-0.9,1.4-1.9,2.8-2.8,4.3L37.2,42
		c-2.1-2.6-3.6-5.6-5.7-8.3l0.1,0c0.2-0.1,0.4-0.1,0.6-0.2c1.9-0.5,3.3-1.5,4.2-3.2c0.7-1.3,0.7-2.7,0.6-4.1
		c-0.3-2.4-1.9-4.3-4.3-4.8c-1.4-0.3-2.9-0.4-4.3-0.4c-3.7,0-7.4,0-11.1,0h-0.3v22.8h6.7v-9.3c0.4,0,0.8,0,1.3,0
		c0.7,0,1.2,0.3,1.6,0.9c1.5,2.2,3,4.5,4.4,6.7c0.7,1,1.3,2,2,3C31,48,29,50.8,27.1,53.7l0.2,0c2,0,4,0,6.1,0c0.2,0,0.3-0.1,0.3-0.2
		c1.1-1.7,2.2-3.4,3.3-5l0.2-0.3l0.2,0.3c0.9,1.7,1.9,3.3,2.8,5c0.1,0.2,0.2,0.2,0.4,0.2c2.2,0,4.3,0,6.5,0l0.3,0l-0.2-0.3
		c-1.8-2.7-3.7-5.4-5.5-8c-0.1-0.2-0.1-0.3,0-0.5C43.3,42.4,45,40,46.7,37.6z M28.8,30.1c-0.8,0.2-1.7,0.4-2.5,0.4
		c-0.8,0-1.5,0-2.3,0h-0.3v-4.9l0.2,0c1.3,0,2.6,0,3.8,0c0.4,0,0.8,0.1,1.2,0.2c1,0.3,1.5,1.1,1.5,2.2C30.3,29,29.7,29.8,28.8,30.1z
		"/>
</g>
</svg>
