<?xml version="1.0" encoding="utf-8"?>
<!-- Generator: Adobe Illustrator 19.0.0, SVG Export Plug-In . SVG Version: 6.00 Build 0)  -->
<svg version="1.1" id="Layer_1" xmlns="http://www.w3.org/2000/svg" xmlns:xlink="http://www.w3.org/1999/xlink" x="0px" y="0px"
	 viewBox="0 0 64 64" style="enable-background:new 0 0 64 64;" xml:space="preserve">
<g id="XMLID_366_">
	<path id="XMLID_370_" d="M15.5,33.8L15.5,33.8c0.7-0.4,1.4-1.2,1.4-2.2c-0.1-0.8-0.4-1.4-0.9-1.7c-0.6-0.4-1.5-0.6-2.8-0.5
		c-1,0.1-2,0.2-2.6,0.4l0.6,8.5l1.9-0.1l-0.2-3.4l0.6,0c0.8,0,1.2,0.2,1.5,1.3c0.3,1,0.6,1.7,0.7,2l2-0.1c-0.2-0.3-0.5-1.4-0.9-2.4
		C16.5,34.6,16.1,34,15.5,33.8z M13.5,33.2l-0.8,0.1l-0.2-2.4c0.1,0,0.4-0.1,0.9-0.1c0.9-0.1,1.5,0.3,1.5,1.1
		C15,32.6,14.5,33.2,13.5,33.2z"/>
	<polygon id="XMLID_371_" points="20.5,35.9 20.4,33.9 23.5,33.7 23.4,32.1 20.3,32.3 20.2,30.5 23.5,30.3 23.4,28.7 18.1,29.1 
		18.7,37.6 24.2,37.3 24.1,35.7 	"/>
	<path id="XMLID_372_" d="M29.8,35.4c-1.7,0.1-2.8-0.9-2.9-2.6c-0.1-1.9,1-2.9,2.5-3c0.7,0,1.3,0.1,1.7,0.2l0.3-1.6
		c-0.4-0.2-1.1-0.3-2.1-0.2c-2.6,0.2-4.6,1.9-4.4,4.9c0.2,2.4,1.8,4.2,4.8,4c1-0.1,1.8-0.3,2.2-0.5L31.4,35
		C31,35.2,30.4,35.4,29.8,35.4z"/>
	<path id="XMLID_375_" d="M34.4,27.9l-2,8.8l2-0.1l0.5-2.2l2.5-0.2l0.8,2.2l2.1-0.1L37,27.8L34.4,27.9z M35.1,32.8l0.4-1.9
		c0.1-0.5,0.2-1.2,0.3-1.7l0,0c0.2,0.5,0.4,1.1,0.5,1.6l0.7,1.8L35.1,32.8z"/>
	<polygon id="XMLID_376_" points="43.2,34.3 42.7,27.4 40.8,27.5 41.4,36.1 46.7,35.7 46.6,34.1 	"/>
	<polygon id="XMLID_377_" points="49.7,33.8 49.2,26.9 47.3,27 47.9,35.6 53.2,35.2 53.1,33.6 	"/>
	<path id="XMLID_380_" d="M64,37.9l-1.1-16.1c0-0.2-0.1-1.5-1-3c-0.4-0.8-1.1-1.6-2.1-2.1c-1-0.6-2.3-0.9-3.7-0.8L5.9,19.4
		c-0.2,0-1.5,0.1-3,1c-0.8,0.4-1.6,1.1-2.1,2.1c-0.6,1-0.9,2.3-0.8,3.7l1.1,16.1c0,0.2,0.1,1.5,1,3c0.4,0.7,1.1,1.6,2.1,2.1
		c1,0.6,2.3,0.9,3.7,0.8l50.1-3.5c0.2,0,1.5-0.1,3-1c0.8-0.4,1.6-1.1,2.1-2.1C63.8,40.5,64.1,39.3,64,37.9z M59.5,39.4
		c-0.1,0.2-0.2,0.3-0.4,0.5c-0.3,0.2-0.6,0.4-0.9,0.4c-0.1,0-0.3,0.1-0.4,0.1l-0.1,0l0,0v0L7.6,43.9c-0.7,0-1.1-0.1-1.3-0.2
		c-0.2-0.1-0.3-0.2-0.5-0.4c-0.2-0.3-0.4-0.6-0.4-0.9c0-0.1-0.1-0.3-0.1-0.4l0-0.1l0,0h0L4.3,25.9c0-0.7,0.1-1.1,0.2-1.3
		c0.1-0.2,0.2-0.3,0.4-0.5c0.3-0.2,0.6-0.4,0.9-0.4c0.1,0,0.3-0.1,0.4-0.1l0.1,0l0,0v0l50.1-3.5c0.7,0,1.1,0.1,1.3,0.2
		c0.2,0.1,0.3,0.2,0.5,0.4c0.2,0.3,0.4,0.6,0.4,0.9c0,0.1,0.1,0.3,0.1,0.4l0,0.1l0,0h0l1.1,16.1C59.8,38.9,59.7,39.2,59.5,39.4z"/>
</g>
</svg>
