<?xml version="1.0" encoding="utf-8"?>
<!-- Generator: Adobe Illustrator 19.0.0, SVG Export Plug-In . SVG Version: 6.00 Build 0)  -->
<svg version="1.1" id="Layer_1" xmlns="http://www.w3.org/2000/svg" xmlns:xlink="http://www.w3.org/1999/xlink" x="0px" y="0px"
	 viewBox="0 0 64 64" style="enable-background:new 0 0 64 64;" xml:space="preserve">
<style type="text/css">
	.st0{fill:#010101;}
</style>
<g id="XMLID_362_">
	<path id="XMLID_403_" class="st0" d="M12.9,33.1c-0.1,0.8-0.2,1.6-0.2,2.3l0,0c-0.1-0.7-0.3-1.4-0.5-2.2l-0.7-2.7l-1.6,0.1
		l-0.4,2.7c-0.1,0.8-0.2,1.6-0.3,2.3l0,0c-0.2-0.7-0.3-1.5-0.5-2.2L8,30.8l-1.6,0.1l2,6.4l1.6-0.1l0.4-2.9c0.1-0.7,0.2-1.3,0.2-2
		l0,0c0.1,0.7,0.3,1.3,0.5,2L12,37l1.6-0.1l1.2-6.6l-1.5,0.1L12.9,33.1z"/>
	<path id="XMLID_414_" class="st0" d="M16.6,30.2L15,36.8l1.5-0.1l0.3-1.7l1.9-0.1l0.6,1.6l1.6-0.1L18.5,30L16.6,30.2z M17,33.9
		l0.3-1.4c0.1-0.4,0.1-0.9,0.2-1.3l0,0c0.1,0.4,0.3,0.9,0.4,1.2l0.5,1.4L17,33.9z"/>
	<path id="XMLID_417_" class="st0" d="M25.2,33.1L25.2,33.1c0.5-0.3,1.1-0.9,1-1.7c0-0.6-0.3-1-0.7-1.3c-0.5-0.3-1.2-0.4-2.1-0.4
		c-0.8,0.1-1.5,0.2-2,0.3l0.5,6.4l1.5-0.1l-0.2-2.6l0.4,0c0.6,0,0.9,0.2,1.1,1c0.2,0.8,0.4,1.3,0.6,1.5l1.5-0.1
		c-0.1-0.2-0.4-1.1-0.7-1.8C25.9,33.6,25.6,33.2,25.2,33.1z M23.6,32.6l-0.6,0l-0.1-1.8c0.1,0,0.3-0.1,0.7-0.1
		c0.7,0,1.1,0.2,1.1,0.8C24.8,32.1,24.4,32.5,23.6,32.6z"/>
	<path id="XMLID_420_" class="st0" d="M30.9,32.7L30.9,32.7c0.5-0.3,1.1-0.9,1-1.7c0-0.6-0.3-1-0.7-1.3c-0.5-0.3-1.2-0.4-2.1-0.4
		c-0.8,0.1-1.5,0.2-2,0.3l0.4,6.4l1.5-0.1l-0.2-2.6l0.4,0c0.6,0,0.9,0.2,1.1,1c0.2,0.8,0.4,1.3,0.6,1.5l1.5-0.1
		c-0.1-0.2-0.4-1.1-0.7-1.8C31.7,33.2,31.4,32.8,30.9,32.7z M29.4,32.2l-0.6,0l-0.1-1.8c0.1,0,0.3-0.1,0.7-0.1
		c0.7,0,1.1,0.2,1.1,0.8C30.5,31.7,30.1,32.1,29.4,32.2z"/>
	<path id="XMLID_423_" class="st0" d="M34.5,28.9L33,35.6l1.5-0.1l0.3-1.7l1.9-0.1l0.6,1.6l1.6-0.1l-2.5-6.4L34.5,28.9z M35,32.6
		l0.3-1.4c0.1-0.4,0.1-0.9,0.2-1.3l0,0c0.1,0.4,0.3,0.9,0.4,1.2l0.5,1.4L35,32.6z"/>
	<path id="XMLID_424_" class="st0" d="M43.4,28.3l0.1,1.9c0.1,1,0.2,1.9,0.3,2.7l0,0c-0.3-0.7-0.8-1.5-1.2-2.2L41,28.5l-1.7,0.1
		l0.5,6.5l1.4-0.1L41,33c-0.1-1.1-0.2-2-0.3-2.8l0,0c0.4,0.7,0.9,1.6,1.3,2.2l1.6,2.4l1.5-0.1l-0.5-6.5L43.4,28.3z"/>
	<polygon id="XMLID_425_" class="st0" points="50.5,27.8 45.5,28.1 45.6,29.4 47.3,29.3 47.7,34.6 49.2,34.4 48.8,29.2 50.6,29 	"/>
	<path id="XMLID_426_" class="st0" d="M54.8,27.5l-0.5,1.6c-0.2,0.5-0.3,0.9-0.4,1.3l0,0c-0.2-0.4-0.4-0.8-0.6-1.2l-0.8-1.5
		l-1.7,0.1l2.3,3.7l0.2,2.7l1.5-0.1l-0.2-2.7l1.9-4L54.8,27.5z"/>
	<path id="XMLID_435_" class="st0" d="M64,35.9l-0.9-12.3c-0.1-1.9-1.7-4.8-5.2-4.5L4.5,22.9c-0.2,0-1.2,0.1-2.3,0.7
		c-1.6,0.9-2.3,2.5-2.2,4.4l0.9,12.3c0.1,1.9,1.5,4.5,4.7,4.5c0.1,0,0.3,0,0.4,0l53.4-3.7c0.2,0,1.2-0.1,2.3-0.7
		C63.3,39.4,64.1,37.9,64,35.9z M59.3,37.9L5.8,41.6c-1.3,0.1-1.7-0.8-1.7-1.5L3.2,27.9c-0.1-1.3,0.8-1.7,1.5-1.7l53.4-3.7
		c1.3-0.1,1.7,0.8,1.7,1.5l0.9,12.3C60.8,37.5,60,37.8,59.3,37.9z"/>
</g>
</svg>
