<svg xmlns="http://www.w3.org/2000/svg" width="48" height="43.826" viewBox="0 0 48 43.826">
  <path id="Icon_material-add-a-photo" data-name="Icon material-add-a-photo" d="M6.261,7.761V1.5h4.174V7.761H16.7v4.174H10.435V18.2H6.261V11.935H0V7.761Zm6.261,12.522V14.022h6.261V7.761H33.391l3.819,4.174h6.616A4.186,4.186,0,0,1,48,16.109V41.152a4.186,4.186,0,0,1-4.174,4.174H10.435a4.186,4.186,0,0,1-4.174-4.174V20.283ZM27.13,39.065A10.435,10.435,0,1,0,16.7,28.63,10.439,10.439,0,0,0,27.13,39.065ZM20.452,28.63a6.678,6.678,0,1,0,6.678-6.678A6.671,6.671,0,0,0,20.452,28.63Z" transform="translate(0 -1.5)" opacity="0.3"/>
</svg>
