<?xml version="1.0" encoding="utf-8"?>
<!-- Generator: Adobe Illustrator 25.2.0, SVG Export Plug-In . SVG Version: 6.00 Build 0)  -->
<svg version="1.1" id="Layer_1" xmlns="http://www.w3.org/2000/svg" xmlns:xlink="http://www.w3.org/1999/xlink" x="0px" y="0px"
	 viewBox="0 0 384 384" style="enable-background:new 0 0 384 384;" xml:space="preserve">
<style type="text/css">
	.st0{fill:#6AAAE4;}
</style>
<path class="st0" d="M362.7,11H21.3C9.6,11,0,18.4,0,27.4v32.8c0,9,9.6,16.4,21.3,16.4h341.3c11.8,0,21.3-7.4,21.3-16.4V27.4
	C384,18.4,374.4,11,362.7,11z"/>
<path class="st0" d="M362.7,159.3H21.3C9.6,159.3,0,166.6,0,175.6v32.8c0,9,9.6,16.4,21.3,16.4h341.3c11.8,0,21.3-7.4,21.3-16.4
	v-32.8C384,166.6,374.4,159.3,362.7,159.3z"/>
<path class="st0" d="M362.7,307.5H21.3C9.6,307.5,0,314.9,0,323.9v32.8c0,9,9.6,16.4,21.3,16.4h341.3c11.8,0,21.3-7.4,21.3-16.4
	v-32.8C384,314.9,374.4,307.5,362.7,307.5z"/>
</svg>
