<?xml version="1.0" encoding="utf-8"?>
<!-- Generator: Adobe Illustrator 25.2.0, SVG Export Plug-In . SVG Version: 6.00 Build 0)  -->
<svg version="1.1" id="Layer_1" xmlns="http://www.w3.org/2000/svg" xmlns:xlink="http://www.w3.org/1999/xlink" x="0px" y="0px"
	 viewBox="0 0 158.1 67.8" style="enable-background:new 0 0 158.1 67.8;" xml:space="preserve">
<style type="text/css">
	.st0{fill:#BABCBE;}
	.st1{fill:#6CADDF;}
</style>
<g>
	<g>
		<g>
			<path class="st0" d="M77.4,37.3h-4.9l-7.3-24.9l-0.1,0.1v24.8h-5.5v-29h9.7l5.8,21.1h0.1l6.3-21.1h9.4v29h-5.5V12.5l-0.1-0.1
				L77.4,37.3z"/>
		</g>
		<g>
			<path class="st0" d="M93,8.3h9.4c8.6-0.1,14,4.4,14,14.5s-5.3,14.6-14,14.5H93C93,37.3,93,8.3,93,8.3z M98.9,32.5h3.1
				c7,0.1,8.1-5.1,8.1-9.7s-1-9.8-8.1-9.7h-3.1V32.5z"/>
		</g>
	</g>
	<g>
		<g>
			<path class="st1" d="M24.5,16.6c-0.4-1.4-2.5-7.3-9.7-7.3C6.2,9.4,2.3,16,2.3,22.5c0,3.2,0.9,13.6,11.8,13.6
				c7.8,0,11.1-5.9,11.1-8.9h1.4c0,3.6-3.7,10.3-12.5,10.3c-9.7,0-13.2-7.8-13.2-15C0.9,15.5,5.2,8,14.7,8c9.1,0,11.1,8.6,11.1,8.6
				L24.5,16.6z"/>
			<path class="st1" d="M14.1,38.5C3.7,38.5,0,30.2,0,22.5C0,15.1,4.6,7.1,14.8,7.1c9.8,0,12,9.3,12.1,9.4l0.2,1.1h-3.3l-0.2-0.7
				c-0.5-1.6-2.4-6.6-8.8-6.6c-8,0-11.5,6.1-11.5,12.2c0,3.8,1.1,12.7,10.9,12.7c7.1,0,10.2-5.3,10.2-8v-0.9h3.2v0.9
				C27.5,31.1,23.6,38.5,14.1,38.5z"/>
		</g>
	</g>
	<g>
		<g>
			<path class="st1" d="M29.7,22.8h1.4c0-1,1.1-5.3,6.2-5.3c5.3,0,5.9,2.8,5.9,4.9c0,0,0,1.1,0,1.8c-0.9,0.8-3.5,1.3-7,1.3
				c-4.4,0.1-7.5,2.7-7.5,6.2c0,4,2.3,5.9,7.2,5.9c5.4,0,8.6-4.5,8.6-8.8v-6.5c0-4.1-2.5-6.2-7.3-6.2C31.6,16.1,29.7,20.7,29.7,22.8
				z M30.2,31.7c0-2.8,2.5-4.7,6.1-4.8c2.3,0,5.2-0.3,7-1.1c0,1.6,0,3.1,0,3.1c0,3.6-2.5,7.4-7.2,7.4C30.9,36.2,30.2,34,30.2,31.7z"
				/>
			<path class="st1" d="M36,38.5c-5.4,0-8.1-2.3-8.1-6.9c0-4.1,3.4-7,8.4-7.1c3.3-0.1,5.2-0.5,6.1-0.9v-1.3c0-2-0.6-3.9-5-3.9
				c-4.9,0-5.3,4.3-5.3,4.3v0.9h-3.2v-0.9c0-2.4,2.1-7.6,8.5-7.6c5.3,0,8.2,2.5,8.3,7.2v6.5C45.5,33.6,42,38.5,36,38.5z M42.3,27
				c-1.9,0.5-4.2,0.7-6,0.7c-3.1,0.1-5.2,1.6-5.2,3.9c0,1.9,0.4,3.6,4.9,3.6c4.1,0,6.3-3.3,6.3-6.4L42.3,27z"/>
		</g>
	</g>
	<g>
		<g>
			<path class="st1" d="M47.5,24.1v13.2h1.4V24.1c0-5.2,6.4-6.6,8.6-6.6v-1.4C55.1,16.1,47.5,17.4,47.5,24.1z"/>
			<path class="st1" d="M49.8,38.2h-3.2V24.1c0-7.3,8.1-8.9,10.9-8.9h0.9v3.2h-0.9c-1.5,0-7.7,1-7.7,5.7L49.8,38.2L49.8,38.2z"/>
		</g>
	</g>
	<g>
		<g>
			<path class="st1" d="M120.1,42.1c-0.6,0-118.2,0-118.2,0v1.2h119.2c2.1-22.1,2-19.5,2.9-28.5c0.8,10.8,4.2,49.5,4.2,49.5
				l7.5-27.6l3.1,9.7l3.6-6.5l1.6,3.4h10.7v-1.2h-10l-2.3-4.8l-3.4,6.1l-3.5-10.9l-6.8,24.9l-4.8-53.8
				C124.1,3.5,120.2,40.7,120.1,42.1z"/>
			<path class="st1" d="M128.4,64.3l-0.4,0c0-0.4-3-34.5-4-47.4c-0.2,2.2-0.4,3.6-0.6,5.3c-0.4,3.4-0.8,7.6-2.1,21.1l0,0.2H1.8v-1.5
				h0.2c0,0,113,0,118,0c0.3-3,3.9-38.1,4-38.5h0.4l4.7,52.8l6.7-24.5l3.6,11.1l3.3-6l2.4,5h10v1.5h-11l-1.5-3.2l-3.6,6.5l-3.1-9.5
				L128.4,64.3z M123.9,14.8h0.4c0.7,9.6,3.6,42.2,4.1,48.5l7.4-27.2l3.2,9.9l3.5-6.4l1.8,3.6h10.4v-0.8h-9.9l-2.2-4.6l-3.4,6.1
				l-3.5-10.7l-6.6,24.3l-0.4,0l-4.6-51.9c-0.8,7.6-3.7,35.5-3.8,36.7l0,0.2h-0.2c-0.5,0-112.8,0-118,0v0.8H121
				c1.3-13.3,1.7-17.5,2.1-20.9C123.3,20,123.5,18.3,123.9,14.8z"/>
		</g>
	</g>
	<g>
		<g>
			<g>
				<path class="st1" d="M2,49.2h4v0.7H2.8v1.7h2.8v0.7H2.8V55H2C2,55,2,49.2,2,49.2z"/>
				<path class="st1" d="M3,55.2H1.9V49h4.3v1.1H3v1.4h2.8v1H3C3,52.5,3,55.2,3,55.2z M2.2,54.8h0.4v-2.6h2.8v-0.3H2.6v-2.1h3.2
					v-0.3H2.2V54.8z"/>
			</g>
			<g>
				<path class="st1" d="M11.6,50.1c0.4,0.5,0.6,1.2,0.6,2c0,0.8-0.2,1.6-0.6,2.1c-0.5,0.7-1.2,1-2.2,1c-0.9,0-1.6-0.3-2.1-0.9
					c-0.4-0.6-0.7-1.3-0.7-2.1c0-0.8,0.2-1.4,0.6-2c0.5-0.7,1.2-1.1,2.2-1.1C10.3,49.1,11.1,49.4,11.6,50.1z M10.9,53.7
					c0.3-0.5,0.5-1,0.5-1.7c0-0.7-0.2-1.2-0.5-1.6s-0.8-0.6-1.5-0.6c-0.6,0-1.1,0.2-1.5,0.6c-0.4,0.4-0.6,1-0.6,1.8
					c0,0.6,0.2,1.2,0.5,1.6s0.8,0.7,1.6,0.7C10.1,54.4,10.6,54.2,10.9,53.7z"/>
				<path class="st1" d="M9.3,55.3c-0.9,0-1.7-0.3-2.2-0.9c-0.5-0.6-0.7-1.3-0.7-2.2c0-0.8,0.2-1.5,0.6-2.1c0.5-0.8,1.3-1.1,2.3-1.1
					c1.1,0,1.9,0.3,2.4,1l0,0c0.4,0.5,0.6,1.2,0.6,2.1c0,0.9-0.2,1.7-0.7,2.2C11.1,55,10.3,55.3,9.3,55.3z M9.3,49.3
					c-0.9,0-1.6,0.3-2,1c-0.4,0.5-0.5,1.2-0.5,1.9c0,0.8,0.2,1.5,0.6,2c0.5,0.5,1.1,0.8,1.9,0.8c0.9,0,1.6-0.3,2-0.9
					c0.4-0.5,0.6-1.2,0.6-2c0-0.8-0.2-1.4-0.5-1.8l0,0C11,49.6,10.3,49.3,9.3,49.3z M9.4,54.6c-0.8,0-1.4-0.2-1.7-0.7
					c-0.4-0.5-0.5-1-0.5-1.7c0-0.8,0.2-1.5,0.6-1.9c0.4-0.4,1-0.7,1.6-0.7c0.7,0,1.2,0.2,1.6,0.7c0.4,0.4,0.6,1,0.6,1.7
					c0,0.7-0.2,1.3-0.5,1.8l0,0C10.7,54.3,10.2,54.6,9.4,54.6z M9.4,50c-0.5,0-1,0.2-1.3,0.5s-0.5,0.9-0.5,1.7
					c0,0.6,0.1,1.1,0.5,1.5c0.3,0.4,0.8,0.6,1.4,0.6c0.6,0,1.1-0.2,1.3-0.7l0,0c0.3-0.5,0.4-1,0.4-1.6c0-0.6-0.2-1.1-0.5-1.5
					C10.4,50.1,9.9,50,9.4,50z"/>
			</g>
			<g>
				<path class="st1" d="M13.2,49.2h2.6c0.4,0,0.8,0.1,1.1,0.2c0.5,0.2,0.8,0.7,0.8,1.3c0,0.3-0.1,0.6-0.2,0.8
					c-0.1,0.2-0.3,0.4-0.6,0.5c0.2,0.1,0.4,0.2,0.5,0.4s0.2,0.4,0.2,0.7l0,0.8c0,0.2,0,0.4,0,0.5c0,0.2,0.1,0.3,0.2,0.3V55h-0.9
					c0,0,0-0.1-0.1-0.2c0-0.1,0-0.2,0-0.5l0-1c0-0.4-0.1-0.6-0.4-0.8c-0.1-0.1-0.4-0.1-0.7-0.1h-1.7V55h-0.8L13.2,49.2L13.2,49.2z
					 M15.7,51.9c0.4,0,0.6-0.1,0.8-0.2c0.2-0.1,0.3-0.4,0.3-0.8c0-0.4-0.1-0.7-0.4-0.8c-0.1-0.1-0.4-0.1-0.6-0.1h-1.9v2L15.7,51.9
					L15.7,51.9z"/>
				<path class="st1" d="M18,55.2h-1.2l0-0.1c0-0.1-0.1-0.1-0.1-0.2c0-0.1,0-0.2,0-0.5l0-1c0-0.3-0.1-0.5-0.3-0.6
					c-0.1,0-0.2-0.1-0.6-0.1h-1.5v2.5H13V49h2.8c0.5,0,0.8,0.1,1.1,0.2c0.6,0.3,0.9,0.8,0.9,1.5c0,0.4-0.1,0.7-0.2,0.9
					c-0.1,0.2-0.2,0.3-0.4,0.4c0.1,0.1,0.2,0.2,0.3,0.3c0.1,0.2,0.2,0.5,0.2,0.8l0,0.8c0,0.2,0,0.4,0,0.5c0,0.1,0.1,0.2,0.1,0.2
					l0.1,0L18,55.2L18,55.2z M17,54.8h0.5c0-0.1-0.1-0.2-0.1-0.2c0-0.1,0-0.3-0.1-0.5l0-0.8c0-0.4-0.1-0.5-0.1-0.6
					c-0.1-0.1-0.2-0.2-0.4-0.3l-0.4-0.2l0.4-0.2c0.2-0.1,0.4-0.3,0.5-0.5s0.2-0.4,0.2-0.7c0-0.6-0.2-1-0.7-1.2
					c-0.2-0.1-0.6-0.2-1-0.2h-2.4v5.4h0.4v-2.5h1.9c0.3,0,0.6,0,0.8,0.1c0.3,0.2,0.5,0.5,0.5,0.9l0,1C17,54.6,17,54.7,17,54.8
					C17,54.8,17,54.8,17,54.8z M15.7,52h-1.9v-2.3h2c0.3,0,0.5,0,0.7,0.1c0.2,0.1,0.5,0.4,0.5,1c0,0.4-0.1,0.8-0.4,0.9
					C16.4,52,16.1,52,15.7,52z M14.1,51.7h1.6c0.3,0,0.6-0.1,0.7-0.2c0.1-0.1,0.2-0.3,0.2-0.6c0-0.3-0.1-0.5-0.3-0.7
					c-0.1-0.1-0.3-0.1-0.5-0.1h-1.7L14.1,51.7L14.1,51.7z"/>
			</g>
			<g>
				<path class="st1" d="M25.2,49.2v0.7h-1.9v5h-0.8v-5h-1.9v-0.7H25.2z"/>
				<path class="st1" d="M23.5,55.2h-1.1v-5.1h-1.9v-1h5v1h-1.9V55.2z M22.7,54.8h0.4v-5H25v-0.3h-4.3v0.3h1.9V54.8z"/>
			</g>
			<g>
				<path class="st1" d="M26,49.2h0.8v2.4h3v-2.4h0.8V55h-0.8v-2.7h-3V55H26V49.2z"/>
				<path class="st1" d="M30.7,55.2h-1.1v-2.7h-2.6v2.7h-1.1V49h1.1v2.4h2.6V49h1.1V55.2z M29.9,54.8h0.4v-5.4h-0.4v2.4h-3.3v-2.4
					h-0.4v5.4h0.4v-2.7h3.3V54.8z"/>
			</g>
			<g>
				<path class="st1" d="M31.8,49.2H36v0.7h-3.4v1.7h3.1v0.7h-3.1v2H36V55h-4.2V49.2z"/>
				<path class="st1" d="M36.2,55.2h-4.6V49h4.5v1.1h-3.4v1.4h3.1v1h-3.1v1.6h3.5V55.2z M32,54.8h3.8v-0.3h-3.4v-2.3h3.1v-0.3h-3.1
					v-2.1h3.4v-0.3H32C32,49.4,32,54.8,32,54.8z"/>
			</g>
		</g>
		<g>
			<g>
				<path class="st0" d="M39.6,49.2h1.2v4.7h2.9v1h-4.1V49.2z"/>
				<path class="st0" d="M43.8,55.2h-4.4V49H41v4.7h2.9V55.2z M39.8,54.8h3.7v-0.7h-2.9v-4.7h-0.8L39.8,54.8L39.8,54.8z"/>
			</g>
			<g>
				<path class="st0" d="M45.5,55h-1.2v-5.8h1.2V55z"/>
				<path class="st0" d="M45.7,55.2h-1.6V49h1.6V55.2z M44.5,54.8h0.8v-5.4h-0.8V54.8z"/>
			</g>
			<g>
				<path class="st0" d="M46.7,49.2h4.1v1h-2.9v1.3h2.5v1h-2.5V55h-1.2L46.7,49.2L46.7,49.2z"/>
				<path class="st0" d="M48.1,55.2h-1.6V49h4.5v1.4h-2.9v1h2.5v1.3h-2.5L48.1,55.2L48.1,55.2z M46.9,54.8h0.8v-2.4h2.5v-0.6h-2.5
					V50h2.9v-0.6h-3.7V54.8z"/>
			</g>
			<g>
				<path class="st0" d="M55.8,50.2h-3v1.2h2.7v1h-2.7v1.5h3.1v1h-4.3v-5.8h4.2V50.2z"/>
				<path class="st0" d="M56.1,55.2h-4.7V49H56v1.4h-3v0.9h2.7v1.3H53v1.1h3.1V55.2z M51.8,54.8h3.9v-0.7h-3.1v-1.9h2.7v-0.6h-2.7
					V50h3v-0.6h-3.8V54.8z"/>
			</g>
		</g>
		<g>
			<g>
				<path class="st1" d="M64.1,50.1c0.4,0.5,0.6,1.2,0.6,2c0,0.8-0.2,1.6-0.7,2.1c-0.5,0.7-1.2,1-2.2,1c-0.9,0-1.6-0.3-2.1-0.9
					C59.3,53.7,59,53,59,52.1c0-0.8,0.2-1.4,0.6-2c0.5-0.7,1.2-1.1,2.2-1.1C62.8,49.1,63.6,49.4,64.1,50.1z M63.4,53.7
					c0.3-0.5,0.5-1,0.5-1.7c0-0.7-0.2-1.2-0.5-1.6s-0.8-0.6-1.4-0.6c-0.6,0-1.1,0.2-1.4,0.6c-0.4,0.4-0.6,1-0.6,1.8
					c0,0.6,0.2,1.2,0.5,1.6s0.8,0.7,1.6,0.7C62.6,54.4,63.1,54.2,63.4,53.7z"/>
				<path class="st1" d="M61.8,55.3c-0.9,0-1.7-0.3-2.2-0.9c-0.5-0.6-0.7-1.3-0.7-2.2c0-0.8,0.2-1.5,0.6-2.1
					c0.5-0.8,1.3-1.1,2.3-1.1c1.1,0,1.9,0.3,2.4,1c0.4,0.5,0.6,1.2,0.6,2.1c0,0.9-0.2,1.7-0.7,2.2C63.6,55,62.8,55.3,61.8,55.3z
					 M61.8,49.3c-0.9,0-1.6,0.3-2,1c-0.4,0.5-0.5,1.2-0.5,1.9c0,0.8,0.2,1.5,0.6,2c0.5,0.5,1.1,0.8,1.9,0.8c0.9,0,1.6-0.3,2-0.9
					c0.4-0.5,0.6-1.2,0.6-2c0-0.8-0.2-1.4-0.5-1.8l0,0C63.5,49.6,62.8,49.3,61.8,49.3z M61.9,54.6c-0.8,0-1.4-0.2-1.7-0.7
					c-0.3-0.5-0.5-1-0.5-1.7c0-0.8,0.2-1.5,0.6-1.9c0.4-0.4,0.9-0.7,1.6-0.7c0.7,0,1.2,0.2,1.6,0.7c0.4,0.4,0.6,1,0.6,1.7
					c0,0.7-0.2,1.3-0.5,1.8C63.2,54.3,62.7,54.6,61.9,54.6z M61.9,50c-0.5,0-1,0.2-1.3,0.5S60,51.4,60,52.2c0,0.6,0.2,1.1,0.4,1.5
					c0.3,0.4,0.8,0.6,1.4,0.6c0.6,0,1.1-0.2,1.3-0.7l0,0c0.3-0.5,0.4-1,0.4-1.6c0-0.6-0.2-1.1-0.5-1.5C62.8,50.1,62.4,50,61.9,50z"
					/>
			</g>
			<g>
				<path class="st1" d="M65.6,49.2h4v0.7h-3.2v1.7h2.8v0.7h-2.8V55h-0.8C65.6,55,65.6,49.2,65.6,49.2z"/>
				<path class="st1" d="M66.6,55.2h-1.1V49h4.3v1.1h-3.2v1.4h2.8v1h-2.8V55.2z M65.8,54.8h0.4v-2.6h2.8v-0.3h-2.8v-2.1h3.2v-0.3
					h-3.6V54.8z"/>
			</g>
			<g>
				<path class="st1" d="M72.2,49.2h0.9l1.7,2.8l1.7-2.8h0.9l-2.2,3.4V55h-0.8v-2.3L72.2,49.2z"/>
				<path class="st1" d="M75.3,55.2h-1.1v-2.4l-2.3-3.7h1.3l1.6,2.6l1.5-2.6h1.3l-2.3,3.7L75.3,55.2L75.3,55.2z M74.6,54.8H75v-2.2
					l2-3.2h-0.5l-1.8,2.9L73,49.4h-0.5l2,3.2L74.6,54.8L74.6,54.8z"/>
			</g>
			<g>
				<path class="st1" d="M82.7,50.1c0.4,0.5,0.6,1.2,0.6,2c0,0.8-0.2,1.6-0.7,2.1c-0.5,0.7-1.2,1-2.2,1c-0.9,0-1.6-0.3-2.1-0.9
					c-0.4-0.6-0.7-1.3-0.7-2.1c0-0.8,0.2-1.4,0.6-2c0.5-0.7,1.2-1.1,2.2-1.1C81.5,49.1,82.2,49.4,82.7,50.1z M82,53.7
					c0.3-0.5,0.5-1,0.5-1.7c0-0.7-0.2-1.2-0.5-1.6s-0.8-0.6-1.4-0.6c-0.6,0-1.1,0.2-1.4,0.6c-0.4,0.4-0.6,1-0.6,1.8
					c0,0.6,0.2,1.2,0.5,1.6s0.8,0.7,1.6,0.7C81.2,54.4,81.7,54.2,82,53.7z"/>
				<path class="st1" d="M80.4,55.3c-0.9,0-1.7-0.3-2.2-0.9c-0.5-0.6-0.7-1.3-0.7-2.2c0-0.8,0.2-1.5,0.6-2.1
					c0.5-0.8,1.3-1.1,2.3-1.1c1.1,0,1.9,0.3,2.4,1c0.4,0.5,0.6,1.2,0.6,2.1c0,0.9-0.2,1.7-0.7,2.2C82.2,55,81.4,55.3,80.4,55.3z
					 M80.5,49.3c-0.9,0-1.6,0.3-2,1c-0.4,0.5-0.5,1.2-0.5,1.9c0,0.8,0.2,1.5,0.6,2c0.5,0.5,1.1,0.8,1.9,0.8c0.9,0,1.6-0.3,2-0.9
					c0.4-0.5,0.6-1.2,0.6-2c0-0.8-0.2-1.4-0.5-1.8l0,0C82.1,49.6,81.4,49.3,80.5,49.3z M80.6,54.6c-0.8,0-1.4-0.2-1.7-0.7
					c-0.3-0.5-0.5-1-0.5-1.7c0-0.8,0.2-1.5,0.6-1.9c0.4-0.4,0.9-0.7,1.6-0.7c0.7,0,1.2,0.2,1.6,0.7c0.4,0.4,0.6,1,0.6,1.7
					c0,0.7-0.2,1.3-0.5,1.8l0,0C81.9,54.3,81.3,54.6,80.6,54.6z M80.5,50c-0.6,0-1,0.2-1.3,0.5s-0.5,0.9-0.5,1.7
					c0,0.6,0.2,1.1,0.4,1.5c0.3,0.4,0.8,0.6,1.4,0.6c0.6,0,1.1-0.2,1.3-0.7l0,0c0.3-0.5,0.4-1,0.4-1.6c0-0.6-0.2-1.1-0.5-1.5
					C81.5,50.1,81.1,50,80.5,50z"/>
			</g>
			<g>
				<path class="st1" d="M85.1,49.2v3.5c0,0.4,0.1,0.8,0.2,1c0.2,0.4,0.6,0.6,1.2,0.6c0.7,0,1.1-0.2,1.4-0.7c0.1-0.2,0.2-0.6,0.2-1
					v-3.5h0.8v3.2c0,0.7-0.1,1.2-0.3,1.6c-0.3,0.7-1,1-2,1s-1.6-0.3-2-1c-0.2-0.4-0.3-0.9-0.3-1.6v-3.2H85.1z"/>
				<path class="st1" d="M86.5,55.3c-1,0-1.8-0.4-2.1-1.1c-0.2-0.4-0.3-1-0.3-1.7V49h1.1v3.7c0,0.4,0.1,0.7,0.2,1
					c0.2,0.4,0.5,0.5,1,0.5c0.6,0,1-0.2,1.2-0.6c0.1-0.2,0.2-0.5,0.2-0.9V49H89v3.4c0,0.7-0.1,1.3-0.3,1.7
					C88.3,54.9,87.6,55.3,86.5,55.3z M84.5,49.4v3c0,0.7,0.1,1.2,0.3,1.5c0.3,0.6,0.9,0.9,1.8,0.9c0.9,0,1.5-0.3,1.8-0.9
					c0.2-0.3,0.3-0.9,0.3-1.5v-3h-0.4v3.4c0,0.4-0.1,0.8-0.2,1.1c-0.3,0.5-0.8,0.8-1.5,0.8c-0.6,0-1.1-0.2-1.3-0.7
					c-0.2-0.3-0.3-0.7-0.3-1.1v-3.4L84.5,49.4L84.5,49.4z"/>
			</g>
			<g>
				<path class="st1" d="M90.1,49.2h2.6c0.4,0,0.8,0.1,1.1,0.2c0.5,0.2,0.8,0.7,0.8,1.3c0,0.3-0.1,0.6-0.2,0.8
					c-0.1,0.2-0.3,0.4-0.6,0.5c0.2,0.1,0.4,0.2,0.5,0.4s0.2,0.4,0.2,0.7l0,0.8c0,0.2,0,0.4,0.1,0.5c0.1,0.2,0.1,0.3,0.2,0.3v0.1
					h-0.9c0,0-0.1-0.1-0.1-0.2c0-0.1,0-0.2,0-0.5l-0.1-1c0-0.4-0.2-0.6-0.4-0.8c-0.1-0.1-0.4-0.1-0.7-0.1h-1.7v2.5h-0.8L90.1,49.2
					L90.1,49.2z M92.6,51.9c0.3,0,0.6-0.1,0.8-0.2c0.2-0.1,0.3-0.4,0.3-0.8c0-0.4-0.1-0.7-0.4-0.8c-0.2-0.1-0.4-0.1-0.6-0.1h-1.8v2
					L92.6,51.9L92.6,51.9z"/>
				<path class="st1" d="M94.9,55.2h-1.2l-0.1-0.1c0-0.1-0.1-0.2-0.1-0.2c0-0.1,0-0.2,0-0.5l-0.1-1c0-0.3-0.1-0.5-0.3-0.6
					c-0.1,0-0.2-0.1-0.6-0.1H91v2.5h-1.1V49h2.8c0.4,0,0.8,0.1,1.1,0.2c0.6,0.3,0.9,0.8,0.9,1.5c0,0.4-0.1,0.7-0.2,0.9
					c-0.1,0.2-0.2,0.3-0.4,0.4c0.1,0.1,0.2,0.2,0.3,0.3c0.1,0.2,0.2,0.5,0.2,0.8l0,0.8c0,0.2,0,0.4,0.1,0.5c0,0.1,0.1,0.2,0.1,0.2
					l0.1,0L94.9,55.2L94.9,55.2z M93.9,54.8h0.5c0-0.1-0.1-0.2-0.1-0.2c0-0.1-0.1-0.3-0.1-0.5l0-0.8c0-0.4-0.1-0.5-0.2-0.6
					c-0.1-0.1-0.2-0.2-0.4-0.3l-0.4-0.2l0.4-0.2c0.2-0.1,0.4-0.3,0.5-0.5c0.1-0.2,0.2-0.4,0.2-0.7c0-0.6-0.2-1-0.7-1.2
					c-0.2-0.1-0.6-0.2-1-0.2h-2.4v5.4h0.4v-2.5h1.9c0.3,0,0.6,0,0.8,0.1c0.3,0.2,0.5,0.5,0.5,0.9l0.1,1
					C93.9,54.4,93.9,54.6,93.9,54.8C93.9,54.8,93.9,54.8,93.9,54.8z M92.6,52h-1.9v-2.3h2c0.3,0,0.5,0,0.7,0.1
					c0.2,0.1,0.5,0.4,0.5,1c0,0.4-0.1,0.8-0.4,0.9C93.3,52,93,52,92.6,52z M91,51.7h1.6c0.3,0,0.6-0.1,0.7-0.2
					c0.2-0.1,0.2-0.3,0.2-0.6c0-0.3-0.1-0.5-0.3-0.7c-0.1-0.1-0.3-0.1-0.5-0.1H91C91,50.1,91,51.7,91,51.7z"/>
			</g>
		</g>
		<g>
			<g>
				<path class="st1" d="M102.4,49.7c0.4,0.4,0.6,0.8,0.7,1.3h-0.8c-0.1-0.4-0.2-0.7-0.5-0.9c-0.2-0.2-0.6-0.3-1.1-0.3
					c-0.6,0-1,0.2-1.4,0.6c-0.3,0.4-0.5,1-0.5,1.8c0,0.7,0.2,1.2,0.5,1.6c0.3,0.4,0.8,0.6,1.4,0.6c0.6,0,1-0.2,1.3-0.7
					c0.2-0.2,0.3-0.5,0.3-0.9h0.8c-0.1,0.6-0.3,1.1-0.7,1.5c-0.4,0.5-1.1,0.7-1.8,0.7c-0.7,0-1.2-0.2-1.7-0.6C98.3,54,98,53.2,98,52
					c0-0.8,0.2-1.5,0.7-2.1c0.5-0.6,1.2-0.9,2-0.9C101.4,49.1,102,49.3,102.4,49.7z"/>
				<path class="st1" d="M100.6,55.3c-0.7,0-1.3-0.2-1.8-0.7c-0.6-0.6-0.9-1.5-0.9-2.6c0-0.9,0.2-1.6,0.7-2.2c0.5-0.6,1.2-1,2.1-1
					c0.8,0,1.4,0.2,1.8,0.6l0,0c0.4,0.4,0.7,0.9,0.7,1.4l0,0.2h-1.1l0-0.1c-0.1-0.3-0.2-0.6-0.4-0.8c-0.2-0.2-0.5-0.3-0.9-0.3
					c-0.5,0-0.9,0.2-1.2,0.5S99,51.4,99,52.2c0,0.6,0.1,1.1,0.4,1.5c0.3,0.4,0.7,0.5,1.2,0.5c0.5,0,0.9-0.2,1.2-0.6
					c0.1-0.2,0.2-0.5,0.3-0.8l0-0.2h1.1l0,0.2c-0.1,0.6-0.3,1.2-0.7,1.6C102.1,55,101.4,55.3,100.6,55.3z M100.7,49.3
					c-0.8,0-1.4,0.3-1.8,0.8c-0.4,0.5-0.6,1.2-0.6,2c0,1,0.3,1.8,0.8,2.3c0.4,0.4,0.9,0.6,1.5,0.6c0.7,0,1.3-0.2,1.7-0.7
					c0.3-0.3,0.5-0.7,0.6-1.2h-0.4c-0.1,0.3-0.2,0.6-0.3,0.8c-0.3,0.5-0.8,0.7-1.4,0.7c-0.7,0-1.2-0.2-1.5-0.7
					c-0.3-0.5-0.5-1-0.5-1.7c0-0.9,0.2-1.5,0.6-1.9c0.4-0.4,0.9-0.7,1.5-0.7c0.5,0,0.9,0.1,1.2,0.4c0.2,0.2,0.4,0.5,0.5,0.8h0.4
					c-0.1-0.4-0.3-0.7-0.6-1l0,0C101.9,49.4,101.3,49.3,100.7,49.3z"/>
			</g>
			<g>
				<path class="st1" d="M105.7,49.2h0.9l2.1,5.7h-0.8l-0.6-1.7H105l-0.6,1.7h-0.8L105.7,49.2z M107,52.6l-0.9-2.5l-0.9,2.5H107z"/>
				<path class="st1" d="M109,55.2h-1.2l-0.6-1.7h-2l-0.6,1.7h-1.2l2.3-6.1h1.1L109,55.2z M108,54.8h0.5l-1.9-5.4h-0.6l-2,5.4h0.4
					l0.6-1.7h2.5L108,54.8z M107.3,52.8H105l1.2-3.3L107.3,52.8z M105.5,52.4h1.3l-0.6-1.8L105.5,52.4z"/>
			</g>
			<g>
				<path class="st1" d="M109.5,49.2h2.6c0.4,0,0.8,0.1,1.1,0.2c0.5,0.2,0.8,0.7,0.8,1.3c0,0.3-0.1,0.6-0.2,0.8
					c-0.1,0.2-0.3,0.4-0.6,0.5c0.2,0.1,0.4,0.2,0.5,0.4s0.2,0.4,0.2,0.7l0,0.8c0,0.2,0,0.4,0.1,0.5c0.1,0.2,0.1,0.3,0.2,0.3v0.1
					h-0.9c0,0-0.1-0.1-0.1-0.2c0-0.1,0-0.2,0-0.5l-0.1-1c0-0.4-0.2-0.6-0.4-0.8c-0.1-0.1-0.4-0.1-0.7-0.1h-1.7v2.5h-0.8L109.5,49.2
					L109.5,49.2z M112,51.9c0.3,0,0.6-0.1,0.8-0.2c0.2-0.1,0.3-0.4,0.3-0.8c0-0.4-0.1-0.7-0.4-0.8c-0.2-0.1-0.4-0.1-0.6-0.1h-1.8v2
					L112,51.9L112,51.9z"/>
				<path class="st1" d="M114.3,55.2h-1.2l-0.1-0.1c0-0.1-0.1-0.2-0.1-0.2c0-0.1,0-0.2,0-0.5l-0.1-1c0-0.3-0.1-0.5-0.3-0.6
					c-0.1,0-0.2-0.1-0.6-0.1h-1.5v2.5h-1.1V49h2.8c0.4,0,0.8,0.1,1.1,0.2c0.6,0.3,0.9,0.8,0.9,1.5c0,0.4-0.1,0.7-0.2,0.9
					c-0.1,0.2-0.2,0.3-0.4,0.4c0.1,0.1,0.2,0.2,0.3,0.3c0.1,0.2,0.2,0.5,0.2,0.8l0,0.8c0,0.2,0,0.4,0.1,0.5c0,0.1,0.1,0.2,0.1,0.2
					l0.1,0L114.3,55.2L114.3,55.2z M113.3,54.8h0.5c0-0.1-0.1-0.2-0.1-0.2c0-0.1-0.1-0.3-0.1-0.5l0-0.8c0-0.4-0.1-0.5-0.2-0.6
					c-0.1-0.1-0.2-0.2-0.4-0.3l-0.4-0.2l0.4-0.2c0.2-0.1,0.4-0.3,0.5-0.5c0.1-0.2,0.2-0.4,0.2-0.7c0-0.6-0.2-1-0.7-1.2
					c-0.2-0.1-0.6-0.2-1-0.2h-2.4v5.4h0.4v-2.5h1.9c0.3,0,0.6,0,0.8,0.1c0.3,0.2,0.5,0.5,0.5,0.9l0.1,1
					C113.3,54.5,113.3,54.7,113.3,54.8C113.3,54.8,113.3,54.8,113.3,54.8z M112,52h-1.9v-2.3h2c0.3,0,0.5,0,0.7,0.1
					c0.2,0.1,0.5,0.4,0.5,1c0,0.4-0.1,0.8-0.4,0.9C112.7,52,112.4,52,112,52z M110.4,51.7h1.6c0.3,0,0.6-0.1,0.7-0.2
					c0.2-0.1,0.2-0.3,0.2-0.6c0-0.3-0.1-0.5-0.3-0.7c-0.1-0.1-0.3-0.1-0.5-0.1h-1.7C110.4,50.1,110.4,51.7,110.4,51.7z"/>
			</g>
		</g>
	</g>
	<g>
		<g>
			<path class="st0" d="M117.3,11.9c-0.4,0.4-0.9,0.6-1.6,0.6c-0.6,0-1.1-0.2-1.6-0.6s-0.6-0.9-0.6-1.6c0-0.6,0.2-1.1,0.7-1.6
				s0.9-0.6,1.6-0.6s1.1,0.2,1.6,0.6c0.4,0.4,0.7,0.9,0.7,1.6C117.9,10.9,117.7,11.5,117.3,11.9z M114.4,9c-0.4,0.4-0.6,0.8-0.6,1.3
				s0.2,1,0.6,1.3s0.8,0.6,1.3,0.6s1-0.2,1.3-0.6c0.4-0.4,0.6-0.8,0.6-1.3s-0.2-1-0.6-1.3s-0.8-0.6-1.3-0.6S114.8,8.6,114.4,9z
				 M115.7,9.1c0.3,0,0.5,0,0.7,0.1c0.2,0.1,0.4,0.3,0.4,0.6c0,0.2-0.1,0.4-0.2,0.5c-0.1,0.1-0.2,0.1-0.3,0.1c0.2,0,0.3,0.1,0.4,0.2
				s0.1,0.2,0.1,0.4v0.2c0,0.1,0,0.1,0,0.2c0,0.1,0,0.1,0,0.1l0,0h-0.4c0,0,0,0,0,0c0,0,0,0,0,0l0-0.1v-0.2c0-0.3-0.1-0.5-0.2-0.6
				c-0.1-0.1-0.2-0.1-0.5-0.1h-0.3v0.9h-0.4V9.1H115.7z M116.2,9.5c-0.1-0.1-0.3-0.1-0.5-0.1h-0.4v0.9h0.4c0.2,0,0.3,0,0.4-0.1
				c0.2-0.1,0.2-0.2,0.2-0.4C116.3,9.7,116.3,9.6,116.2,9.5z"/>
		</g>
	</g>
</g>
</svg>
