<svg xmlns="http://www.w3.org/2000/svg" width="1640" height="340.802" viewBox="0 0 1640 340.802">
  <g id="Panoramic-City-Skyline-Silhouette" transform="translate(0.019 -33.6)">
    <path id="Path_744" data-name="Path 744" d="M1638.417,332.72l-.312-1.049c-.134.125-.4.375-.53.5-.3-.19-.574-.374-.827-.555-.022.277-.065.833-.085,1.111-.434-.006-.842-.01-1.229-.006-.243-.434-.44-.858-.649-1.286-.015.343-.05,1.029-.065,1.373a1.647,1.647,0,0,1-.5-1.473l-.824.5c-.181.352-.343.705-.49,1.064l-.287-1.136c-.19.387-.334.783-.484,1.179a3.078,3.078,0,0,0-.992-1.307c-.012.272-.031.817-.04,1.092-.83.015-1.657.028-2.462.031-.044.971-.068,1.944-.106,2.921a3.944,3.944,0,0,1-2-.655c-.327.115-.63.234-.911.359-.474-.1-.936-.206-1.376-.3-.091-.615-.207-1.226-.278-1.832a48.368,48.368,0,0,1-4.862-.415l-.349-.627a4.817,4.817,0,0,0-.19.684c-2.022.01-4.038-.035-6.047-.006-.006-1.295-1.554-1.753-1.66-3.026-.353.247-.687.493-1.005.739-.065-.05-.2-.144-.262-.193,0-.393,0-.786.031-1.173l-1.2.112-.53.468c-.025-.175-.078-.53-.1-.705q-.45.187-.842.39c-.072-.184-.212-.552-.281-.734-1.42.128-2.9.493-4.231-.172l-.446.162a4.437,4.437,0,0,0-2.422-1.7c-.022-.652-.038-1.3-.022-1.944-1.1-.684-2.265-1.4-3.591-.93-1.06-.216-5.806-.454-7.723.219-.318.424-.484,1.591-1.164.967a2.649,2.649,0,0,1-.094-1.91,19.82,19.82,0,0,1,.065-4.63l-.4-.9c.131-.144.394-.424.524-.568-.159-.34-.293-.677-.412-1.011.112-.156.337-.465.447-.621l-.5-.59c.168-.312.355-.624.561-.93l-.5-.49c-.044-1.66.172-3.32.015-4.977-.923.168-2.555-.668-2.836.6-5.345-.968-3.318-1.2-5.005-.921-.087-.147-.262-.44-.352-.587-.156.125-.472.377-.63.5-.377-.006-.73-.006-1.064,0-1.021,1.554-3.111,1.126-4.684,1.176-.056.883-.085,1.769-.115,2.655-.8-.031-1.588-.072-2.362-.134a30.278,30.278,0,0,0-.178,6.194c-.687-.053-1.351-.1-2-.143-.215,2.574-.2,5.164-.268,7.748-.805-.031-1.595-.031-2.369.015-.044,1.738-.072,3.476-.131,5.217-3.336-.213-2.132-1.1-4.459-.468a3.955,3.955,0,0,1-1.763-.094,5.228,5.228,0,0,0-.427.7c-.368.193-.712.4-1.039.605-.088-.169-.262-.505-.353-.674a7.609,7.609,0,0,1-.733,1.017c-.015-.175-.04-.527-.056-.705-.094.019-.281.05-.374.069a8.419,8.419,0,0,0-2.178.122q-.018-1.161-.031-2.309a7.326,7.326,0,0,0-.4.821c-2-1.251-4.534-.265-6.553-1.46a16.282,16.282,0,0,0-1.357.958,22.565,22.565,0,0,0-.087,3.557,83.976,83.976,0,0,1-.574,10.425,10.909,10.909,0,0,0-2.2.5c-.09-.115-.271-.352-.362-.471-.156-.025-.465-.072-.621-.094-.25-.4-.456-.808-.724-1.158a10.754,10.754,0,0,0-1.189.085c-.552.986-1.66.759-2.587.637a3.255,3.255,0,0,0-1.963-1.173c-.667-1.261.607-1.242-1.816-2.175.013-.877.752-2.24-.318-2.749-5.177-2.726-.351.026-6.1-2.5-.065-.147-.19-.443-.253-.59-.334-.106-.649-.206-.942-.3-.018-.474-.04-.946-.013-1.411-.109-.147-.325-.437-.434-.58l.53-.543c-.416-3.363-.113-.558.047-7.436-.7-.072-1.37-.15-2.032-.234-.115-.449-.206-.9-.275-1.336-1.27-.714-2.88-1.351-4.162-.325-.159-.072-.477-.212-.637-.281a15.315,15.315,0,0,1-3.688.325,8.39,8.39,0,0,1-.447-.749c-.053.181-.153.546-.206.73-.634.01-1.26.019-1.857.04-.311-2.249.035-11.75.159-14.1-.562-.05-1.129-.1-1.648-.143.01-.125.031-.374.04-.5l-.577.462c-.056-.5-.094-1-.109-1.488-.992-.14-2.088-.143-2.811-.93a4.684,4.684,0,0,0-2.537.384c-1.161.534-2.452.075-3.653.315-.113-.037-.34-.115-.452-.156a12.414,12.414,0,0,1-2.065.277c-.034.5-.056.992-.066,1.495-1.241-1.029-.788-21.44-.789-22.082.172,0,.509.006.677.006-.8-.377-1.615-.029-.022-1.85a8.992,8.992,0,0,1,.268-1.092,5.431,5.431,0,0,1-1.195-2.437c.312-.087.642-.168.992-.247a1.992,1.992,0,0,1-.914-1.3,3.344,3.344,0,0,0,1.211-1.264c-1.719-.131-3.417-.384-5.118-.58.2-.447.409-.889.649-1.323-.053-.118-.162-.352-.219-.471.384-.047.786-.094,1.2-.134.01-.175.025-.53.034-.705a11.129,11.129,0,0,0-2.784-.465c-.128-.075-.39-.228-.521-.3-.085-7.536.133-8.693,1.092-9.682-.119-.381-.225-.755-.306-1.126.33-.641,10.5-18.292,11.573-19.336-.365-.278-.662-.746-1.155-.634-1.74,3.364-4.234,6.554-5.3,9.251-.247.253-.48.509-.687.767a5.712,5.712,0,0,0,.062.852c-1.121.749-5.024,7.571-5.719,8.971-.222-.069-.671-.209-.9-.277a9.543,9.543,0,0,1,.119-1.073,6.6,6.6,0,0,1-1.61-3.1c-.4.122-.771.247-1.127.377a32.64,32.64,0,0,1,1.142,3.52c-.524.006-1.03.015-1.52.028a10.03,10.03,0,0,0,.15,2.443,14.08,14.08,0,0,1,2.24.652,6.862,6.862,0,0,1,.359,3.108c.175,5.9-.26,4.731-1.307,5.429-1.825-.462-3.738.312-5.595-.056.03-.224.044-.448.053-.673a5.713,5.713,0,0,1-.791.087c.008.181.022.363.039.545-1.773-.459-3.616.01-5.367-.537a10.779,10.779,0,0,1-3.713.356,4.472,4.472,0,0,1-.574-1.058c-4.149,1.9.83,3.164-.933,4.705.1,1.388.649,2.958-.137,4.228.2.231.427.465.671.705-.252.4-.465.805-.683,1.211.184.512.34,1.02.549,1.541l-.671-.4c.013.169.031.505.044.674l.64.44c-.2.347-.377.692-.543,1.042.109.131.331.39.443.521-.006.215-.019.649-.022.867l-.786.19c.006,1.985,0,3.969,0,5.957-.874-.006-1.729-.006-2.58-.012-.013.643-.142,10.835-.6,11.86-.394.006-.768.015-1.12.028a9.2,9.2,0,0,0-.534.849c-.942.059-1.875.072-2.8.056a21.079,21.079,0,0,1-.156-2.615c-1.5-.9-3.332-.983-5.021-1.2.01-.515.05-1.024.1-1.526l-.639-.35c.078-1.482-1.054-2.552-1.52-3.866-4.611-.2-2.8.414-4.937.6-2.3.172-4.571-.621-6.859-.256a15.48,15.48,0,0,1-4.022-.14c-.421,1.949-1.1.982-1.167,3.888q-.6.033-1.126.085c-.568,1.02-1.85.359-2.721.839-.742.094-1.807,1.017-2.278.115-1.236.6-2.664.15-3.922-.112-6.524-.046-5.561.449-7.517,1.017-.013.827-.013,1.657-.006,2.487a4.845,4.845,0,0,0-2.122.393c.512.147,1.092.3,1.645.437.022,2.565-.431,5.1-.365,7.673-.637.989-.434,2.194-.427,3.308-.3-.122-.58-.237-.849-.349-.3,1.27-.34,2.793-1.488,3.638-.037-.306-.115-.921-.156-1.229a11.07,11.07,0,0,1-.961,1.233c-.115-.44-.215-.88-.293-1.314-.072.247-.212.742-.284.989a6.006,6.006,0,0,0-1.6.134c-.755.671-.016,6.652-.128,9.973a41.082,41.082,0,0,1-7.024-.5c-1.173.322-2.365-.044-3.545.015-.06-1.451.287-2.958-.047-4.368-.771-.671-1.947-.524-2.889-.68-.093-.671-.168-1.339-.243-2-1.407-.771-2.565-1.9-3.9-2.771-.094.153-.284.462-.381.615-5.629-.965-8.7,1.3-11.151,1.632-.009-.237-.022-.714-.028-.952-.09.19-.275.571-.368.761-.156-.162-.471-.49-.63-.652.1.877.2,1.76.243,2.649a16.041,16.041,0,0,0-2.552.281c.353.946-.025,2.025.477,2.911a1.135,1.135,0,0,0-.144,1.532c-.574,1.251.2,2.637-.352,3.885.085.1.256.315.34.418a1.633,1.633,0,0,0-.075,1.688c-.085.153-.256.459-.34.612.1.362.218.727.349,1.1-.4-.247-.739-.48-1.1-.721l-.892.075-.424-.287a1.384,1.384,0,0,1-1.691.365c-1.71.58-3.429-.172-5.139.05.15-1.794.115-3.595.134-5.391a32.46,32.46,0,0,0-3.42-.256c-.081-1.011-.156-2.022-.206-3.03a11.4,11.4,0,0,1-3.536-.509c-1.28.1-2.674.452-3.832-.259-.172.085-.515.25-.687.331-.334-.044-.652-.081-.952-.115.377-2.11-.1-4.24.153-6.356-.068-1.173.387-2.609-.515-3.554l-.877.252c-.474-1.223.022-2.736-1.036-3.7-.443-.047-.83-.087-1.236-.134.069-2.35.034-4.7.127-7.049a4.79,4.79,0,0,0-2.736-.527c-.225-4.231.14-8.453.04-12.684-2.04-1.117-1.531-.748-1.367-2.3a4.308,4.308,0,0,1-1.021-1.85c-.015.172-.044.518-.059.693a29.172,29.172,0,0,1-3.229-.281c-.668-1.286.185-2.367-7.516-1.645-.031-.187-.09-.559-.122-.746a8.583,8.583,0,0,0-.465.727c-.621.012-1.223.028-1.813.05,0,.655.013,1.311.053,1.972-.9.022-1.791.05-2.668.1-.409-.128-.805-.25-1.186-.365-.131.119-.4.359-.534.477-.53-.028-1.039-.05-1.529-.081-.362-.577-.983-.147-1.46-.078a2.78,2.78,0,0,1-1.361-.031,19.232,19.232,0,0,1-2.143.352c-.068,3.972-.3,7.944-.225,11.919-.06-.137-.181-.415-.24-.552-.755.044-1.613-.2-2.235.3.013,1.354.147,2.705.069,4.063-.712.24-1.41.487-2.1.724-.069,2.318-.035,4.64-.05,6.964q-1.751-.056-3.479-.04c-.028,3.523-.084,7.046-.144,10.568a5.652,5.652,0,0,1-.783-1.563q-1.058-.052-2.075-.118c-.019-.25-.056-.749-.075-1q.51-.122,1.067-.24c-.356-.11-.7-.209-1.027-.309-.466-23,.056-34.771.122-42.454-6.7-.99-7.908.065-9.354-1.316a1.183,1.183,0,0,1-1.123-.281l-.072.49-.6-.459a9.172,9.172,0,0,1-4.455.159c-.184.01-.555.035-.739.044-.056-.234-.168-.7-.228-.939-.05.237-.15.709-.2.942-1.978.162-3.969.037-5.935.256.112-.193.337-.577.449-.771a5.353,5.353,0,0,0-3.429-.356c-.084-.159-.256-.471-.343-.63a7.371,7.371,0,0,0-.315.727,3.583,3.583,0,0,1-2.247-.877c-.056.212-.172.637-.227.849-.4.2-.774.4-1.136.609.225-5.536.287-11.08.306-16.622a2.164,2.164,0,0,1-2.087-1.076c-2.559-.55-8.691-.951-9.595-.559-.081-.714-.131-1.423-.2-2.131-.147.54-.262,1.086-.365,1.632-15.212.21-13.506.433-13.973,1.286-2.162.185-1.673-.7-1.7,5.623-1.07.056-2.337-.347-3.161.53q.833.065,1.71.115c.343,1.707-.505,3.283-.637,4.952a40.186,40.186,0,0,1-.231,7.9c.112.137.343.412.459.549-.749,3.315.287,1.875-.421,4.343.119.24-.023,26.227-.262,26.85.119.693.227,1.388.3,2.094a15.641,15.641,0,0,1-4.612-.153c.229-3.061.15-.9-.16-9.13-.019,3.014-.225,6.025-.178,9.039-.858-.125-1.713-.253-2.555-.372-.14-.5-.272-1-.4-1.488-.352-.1-.693-.19-1.014-.281l-.724-15.386c-.125.4-.234.805-.325,1.214a1.094,1.094,0,0,1-.434,1.258c.106.109.318.327.422.437-.415,4.312-.74,8.64-1.32,12.937a1.232,1.232,0,0,0-1.432.106c-.35-.134-.684-.262-1-.387.084-.131.25-.387.331-.518h-.59c.04.172.125.512.165.684-1.376.443-2.178-.874-3.273-1.382a9.458,9.458,0,0,0-.084-5.351c-2.452-1.34-1.214-1.063-2.047-3.036-1.375-2.523-1.552-4.4-3.008-7.61a25.823,25.823,0,0,0-4.312.09c-.09-.337-.028-.8-.452-.88-.013.3-.038.9-.05,1.2-2.248-.753-5.252.413-11.058-.24-.06-.168-.181-.505-.24-.674-.025.159-.075.474-.1.634a43.409,43.409,0,0,0-6.135-.078l-.225.721a30.7,30.7,0,0,0-3.314.162c-.643,2.228-1.61,4.343-2.247,6.574-.181.015-.543.05-.724.069-.022.7-.028,1.395-.015,2.1a2.46,2.46,0,0,0-1.336-.24,3.853,3.853,0,0,1,.818,1.126c-.23.012-.693.037-.927.053-.265.247-.512.5-.745.752,0,1.663-.022,3.329-.006,4.992-.509.24-1.008.487-1.491.736.06,1.694-.056,3.391-.053,5.089a5.889,5.889,0,0,0-1.333.393,15.039,15.039,0,0,0-.078,2.977,4.494,4.494,0,0,1-2.9-.939c-.147.128-.434.387-.577.515-.714-.275-.674-1.1-.8-1.716-1.25-.6-.789.757-.746-11.411l.209-24.687a18.626,18.626,0,0,0-2.871-.505q-.215-.528-.384-1.049a10.148,10.148,0,0,0-2.122.259c.006-.209.025-.63.031-.839-.234,0-.708,0-.942.006a27.838,27.838,0,0,0-.306-3.4c-.531-.2-9.408-.2-9.975-.2-.256.268-.5.537-.724.811a4.4,4.4,0,0,1-.786,3.129c-.041.372-.065.746-.072,1.126-2.671.131-5.342.165-8.006.347-1.208,1.639-1.215-2.466-1.183,29.081-.6-.022-1.167-.035-1.732-.05-.047-1.75-.031-3.5.01-5.245l-.3.01c.069,1.707.075,3.42.05,5.129q-3.09-.108-6.153-.412c-1,1.641-2.24,3.111-3.326,4.69-2.605.8-8.759-.07-11.754.181-.025,2.072-.044,4.144-.035,6.219-1.391.327-2.774.684-4.153,1.049,0-.468.016-.93.044-1.386-1.395-.053-2.78-.047-4.163-.106.078-1.226.16-2.456.134-3.685-1.962.019-3.916-.2-5.872-.165a2.89,2.89,0,0,0,.022-2.206c.552-2.031-.112-4.147.231-6.2a9.291,9.291,0,0,0-.144-3.57,4.731,4.731,0,0,0-.069-2.693c.421-2.193.563-11,.057-12.918q.716-.309,1.469-.605c.865-8.647,1.129-6.417-10.337-7.623-1.233-.081-.159-2.04-1.276-2.309-.611-.186-10.037.412-12.1.527-.1.559-.194,1.123-.259,1.691-.641.072-14.109,1.08-14.662.684-.085-.577-.131-1.154-.247-1.716a6.41,6.41,0,0,0-.362,1.96c-.256.047-.767.143-1.024.193,0-.377-.016-1.133-.022-1.51-.19.471-.327.954-.487,1.432a33.618,33.618,0,0,0-5.255.1,33.843,33.843,0,0,0-.109,6.088s-4.6-.238-18.622.714c-.025-.206-.078-.624-.1-.833-.281.764.069,2.215-1.092,2.19a23.171,23.171,0,0,1-1.167-3.46c-2.169,1.786-.947.53-.518,6.1a5.325,5.325,0,0,0-.387.609,2.442,2.442,0,0,0-2.085.147c.25.06.749.175,1,.231-.7.312-1.416.577-2.119.855,1.061.749,2.312-.193,3.441.422a64.916,64.916,0,0,1-6.515.808c-.309-.39-.609-.777-.886-1.164.737-.552.559-1.373.275-2.115l-.986-.137c.131-.48.069-1.17.705-1.279.549-.256,1.635-.646,1.089-1.438-.721-.474-1.8-.524-1.86-1.595.659-.462,1.729-.917,1.338-1.928a5.87,5.87,0,0,1-1.423-1.545,15.581,15.581,0,0,0,1.975-.739c.06-.471.078-.946.125-1.413-.446-.035-.88-.069-1.3-.1-.227-.39-.449-.774-.655-1.154q.721-.529,1.482-1.033c-.159-.764-.275-1.61-1.076-1.944-.019-.209-.053-.621-.069-.827.521-.131,1.049-.256,1.595-.374a4.862,4.862,0,0,0-.181-1.719,6.328,6.328,0,0,0-1.645-.447,1.849,1.849,0,0,1,1.248-1.361q.019-.8.025-1.582c-.509-.312-1.47-.574-1.142-1.363-.028-.942,1.051-.621,1.67-.742.019-.615.035-1.223.06-1.832a6.7,6.7,0,0,1-1.338-.237c-.39-.515-.222-1.226-.293-1.822.372-.178.768-.349,1.164-.521a11,11,0,0,0-.028-1.95,5.812,5.812,0,0,0-1.46-.73q-.225.4-.412.814c-1.255-1.359-2.967-1.527-1.613-3.251.053-.165.156-.5.209-.662-.268-.225-.524-.443-.764-.662-.025-.384-.034-.764-.025-1.139.664-.153.627-.761.642-1.295a3.857,3.857,0,0,1-.7-1,5.284,5.284,0,0,1,.814-1.27c-.293-.537-.58-1.064-.88-1.579.022-.184.062-.552.081-.736l.7-.24c-.01-.315,0-.624.015-.93-.347-.412-.942-.786-.814-1.4.181-.134.546-.4.73-.537.013-.377.035-.752.075-1.123-.187-.122-.555-.365-.739-.487.04-.234.119-.7.159-.933.227-.259.452-.527.684-.8-.247-.736-.677-1.395-.88-2.137l1.017-.272c-.745-2.75-1.651-1.724-.144-3.021q-.01-.543.019-1.076c-.193-.075-.577-.222-.771-.293-.028-.452-.04-.9-.04-1.341l.911.1a6.509,6.509,0,0,0-1.052-2.515c.864-.212,1.049-.958.986-1.75-.293-.156-.574-.312-.839-.468-.035-.381-.056-.761-.065-1.136.219.01.652.035.87.047.01-2.749.075-5.495.165-8.24-1.953-.268-4-.131-5.835-.936.193-.053.577-.156.771-.206.013-.262.04-.786.056-1.049-2.4-.072-4.8.172-7.176-.1-.976-.15-1.663.917-2.643.734-2.331-.215-4.649-.58-6.986-.664,0-.109-.01-.331-.01-.44-.085.09-.256.268-.34.359-.808-.147-1.607-.262-2.4-.362,0,.327-.01.977-.013,1.3a5.186,5.186,0,0,1-.787-.674,4.03,4.03,0,0,0-.427.593c-.521-.175-1.029-.356-1.526-.537-.4.222-.787.447-1.164.671-.006-.434,0-.864.022-1.292-1.488-.287-2.939.162-4.405.268.238-31.264.832-50.1.209-51.587-1.844-.293-3.766-.693-5.583-.075-3.729-.921-16.424-1.82-18.238-3.017a12.976,12.976,0,0,0-6.1-.24c-.641.015-6.433-.406-7.807-.1a5.926,5.926,0,0,1-2.522-.115c-1.161-.277-2.274.48-3.42.175a8.571,8.571,0,0,0-3.744.165c-2.026-.553-8.915-.251-12.038.518-.139,5.247.038,66.487-.368,68.621a61.483,61.483,0,0,0-7.192.087c-.125,8.54.015,17.08-.056,25.62a9.37,9.37,0,0,0-.771,1.07l-.565.2c.16,2.45.107,21.711.047,24.013-1.532-.632-.6-2.829-.974-9.507-.327-.062-.646-.118-.949-.172a4.158,4.158,0,0,0-1.055-1.935c-.128-1.988.3-4.069-.462-5.969-.206-.056-.618-.172-.821-.231l-.711.427c-1.816-.462-3.495-1.3-5.27-1.869-1.054-.49-2.564-.7-2.73-2.087-.406-.14-.827-.456-1.189-.1-.056.24-.168.721-.225.961-2.568,1.326-5.295,2.312-7.969,3.395-.484-.15-1.308-.749-1.573-.015-.534,1.847-.09,3.819-.4,5.707a2,2,0,0,0-.83,2.087l-1.076.013c-.184,3.086-.031,6.181-.1,9.273-1.972.685-1.321-2.487-1.441,11.645-.481.05-.952.106-1.407.165.886-1.878-.3-3.835-.066-5.782-.184-1.613.387-3.432-.44-4.9a17.379,17.379,0,0,1-5.151-.2c-.046-1.829.317-93.785-.212-94.877-1.5-.618-3.2-.362-4.774-.577-.687-13.2.908-17.638-1.024-18.569-2.135-.3-4.393-.184-6.365-1.17-2.115-.222-4.268-.081-6.334-.624a19.634,19.634,0,0,1-.427-1.932q-.454-.225-.871-.44c.037-.231.112-.689.15-.917-1.148-.562-1.666-1.791-2.627-2.568-.212-.559.418-.867.705-1.236l-.846-.374c.227-.334.459-.664.708-.992a4.848,4.848,0,0,1-.574-.858,3.735,3.735,0,0,1,.559-.961c-.574-.356-.524-1.026-.571-1.6.2.05.584.147.777.2-.29-.375-.577-.746-.852-1.117.209-.327.418-.655.649-.976-.821-.746-.634-1.866-.409-2.83-.529-.873.5-4.149-.215-5.538.29-.861.555-1.766-.215-2.449a1.462,1.462,0,0,1,1.307.49c-.309-1.267-.976-2.493-.976-3.8a3.964,3.964,0,0,0,.265-2.867c.175-.356.352-.709.555-1.058q-.3-.478-.571-.955a1.34,1.34,0,0,0-.125-2.106c.153-.069.462-.2.614-.268a2.845,2.845,0,0,0-.393-1.6c.094-.518.8-1.195.05-1.538.109-.019.325-.06.43-.078-.187-.109-.559-.327-.746-.44l.671-.387c-.037-.43-.062-.855-.094-1.279-.318-.4-.618-.8-.892-1.211.237-.4.5-.8.714-1.217a5.381,5.381,0,0,0-1.766-1.248c-.324.427-.634.858-.942,1.286.827,1.039.05,2.237.1,3.395a7.31,7.31,0,0,0,.505,2.811c-.268-.272-.524-.54-.771-.808-.09.609-.156,1.217-.231,1.825.538,3.6-.653,10.122.234,11.539-.09.119-.274.359-.368.477-.065,2.3.537,4.712-.509,6.877a5.739,5.739,0,0,1,.06,3.473c.081.172.247.515.327.684l-.646.153c.175.012.524.04.7.053-.705,2.028-.259,4.175-.38,6.265-.452-.156-.914-.312-1.345-.459-.193.936-.022,1.9-.178,2.839a7.715,7.715,0,0,0-1.055-1.588,6.968,6.968,0,0,0-2.812-.29,9.283,9.283,0,0,1-.225,1.972,13.1,13.1,0,0,1-.243-1.99c-.322.122-.634.247-.933.377.025-.381.028-.758.015-1.133a2.411,2.411,0,0,0-3.32,1.258c-.212-.465-.406-.927-.593-1.391.318-1.258-1.086-2.337-.518-3.6.527-1.448,0-2.974-.075-4.449a1.562,1.562,0,0,0-.062-1.782,4.58,4.58,0,0,0,0-2.25c-.228-.48.381-.437.689-.574a15.969,15.969,0,0,0-.743-3.5c.262-.247.74-.359.864-.742-.065-.662-1.017-1.229-.4-1.894.377.312.786.612,1.2.9a4.177,4.177,0,0,0-.921-1.413,12.753,12.753,0,0,1-.687-7.124c-.945-3.148.3-8.975-.958-11.691-1.857.877.2,8.043-1.523,11.994.3.546.5,1.126-.181,1.479.019.883.013,1.766-.037,2.649.14.1.421.3.565.4-.106.293-.2.587-.284.883.072.14.212.418.281.559-.193.34-.377.68-.549,1.021.187.381.387.759.6,1.139-.277.412-.543.821-.808,1.229.15-.044.455-.131.605-.178.022.309.069.93.09,1.239-.262.272-.493.546-.73.821.587.234.712.833.877,1.388-.365.222-.693.449-1.036.677l1.021.4c-.218.655-.431,1.311-.668,1.96q.309.281.655.571c-.93.839-.075,2.019-.019,3.042l-.9.013c-.106.29-.175.587-.259.88.742-.8.914.406.63.927q-.524,0-1.014,0c-.215-2.352-.05-4.721-.275-7.074l.64-.022a3.4,3.4,0,0,1-1.208-.687c.213,1.816.165,11.319-.184,12.74q.145.641.322,1.289c-.212.05-.633.156-.842.209-.013.689-.006,1.386.015,2.078a15.683,15.683,0,0,0-1.407-.705c-.2.347-.4.693-.58,1.042-.069.634.412,1.719-.512,1.857-.324-.574-.6-1.167-.93-1.728-.063.721-.085,1.448-.078,2.172-.374.019-.737.037-1.086.06-.209-.674-.222-1.548-.974-1.857l.349.8a4.135,4.135,0,0,1-1.432,1.723q-.056.5-.069,1c-3.345.505-6.7.992-10,1.719l.147,16.113c-.734.106-1.451.222-2.165.343.019,4.817-.053,9.638.072,14.456-2.1.069-4.19-.225-6.284-.178-1.466-.022-2.8.9-4.268.63a4.617,4.617,0,0,0-.452.247c-1.151.159-2.284.377-3.426.527-.119.468-.231.942-.374,1.4-.852.372-1.669-.3-2.449-.555-1.916.63-3.957.078-5.9.5-2.044.128-4,.78-6.028.974-.04.452-.084.9-.1,1.361a23.261,23.261,0,0,0-3.882-.325c.3-.281.661-.549.989-.824-3.147.393-2.628-.721-3.969.534-2,.062-3.978-.393-5.966-.2.037-.277.113-.839.15-1.12-1.154.277-2.265.721-3.429.942.175-.384.38-.761.577-1.139-.521.087-1.046.178-1.548.272.015.2.044.6.06.805l-.83-.3c.072-.237.218-.711.29-.949a24.608,24.608,0,0,1-2.637.821c.013-.24.035-.721.047-.964-.15.044-.443.128-.593.168-.025-.228-.078-.68-.1-.908a4.486,4.486,0,0,1-.418,1.685c-.147-.065-.437-.193-.58-.259-2.16,1.021-4.646.705-6.859,1.566a3.842,3.842,0,0,0-2.225-.615c-.736.693-1.8.281-2.684.53l1.161.172a2.435,2.435,0,0,1-3.1-.087,4.266,4.266,0,0,1,.284-3.778c.543-1.311-1.233-1.928-1.965-2.674l.814-.5c.013-.137.038-.406.05-.543l-1.123-.065c-.368-.222-.643-.721-1.117-.6a6.187,6.187,0,0,0-1.2,2.986c-.3.225-.59.459-.886.671a9.381,9.381,0,0,1-.774-1.154l-.571-.25c-.939-2.247-3.261-3.448-4.334-5.623-2.883-.3-5.741-.8-8.63-1.051-.617-6.814,2-6.67-6.222-7.226-.109-.427-.212-.855-.34-1.267-.437-.206-1-.187-1.345-.505-.268-.687-.424-1.4-.655-2.094-.487-.206-.971-.418-1.438-.63a11.445,11.445,0,0,0-2,.892c-.231.577-.3,1.2-.5,1.794a4.707,4.707,0,0,1-1.264.381,3.821,3.821,0,0,0-.39,1.678c-.543-.028-1.073-.053-1.6-.075-.069-.128-.206-.381-.275-.509-.68.742-1.735.78-2.634,1.039-.09.15-.275.452-.368.605q-.557.1-1.092.215c-.019,3.008-.14,6.022.131,9.021-.677.072-1.339.153-2,.231-.06.2-.184.605-.247.808-.637.053-1.267.109-1.891.172-.315,2.955,0,5.925-.084,8.889q-.707.15-1.385.3c-.04.215-.125.643-.165.858a21.169,21.169,0,0,1-2.615.605c-.128,2.914.081,5.835.053,8.752-.456.122-.9.243-1.341.368-.034.212-.106.637-.14.849-.839.178-1.838.01-2.555.484-.352.75-.039,13.172.031,14.34-.437-.006-.867-.013-1.288-.015.025.156.078.468.1.624-.337-.017-9.255.006-9.255.006,0-.243.015-.734.019-.976-9.091-.784-10.056-.309-12.057.04.01.709.019,1.42.04,2.135-1.245.223-21.786,2.844-22.26,2.817-.045,3.187.07,70.137.094,74.184-3.151.352-6.334.24-9.482.58a29.944,29.944,0,0,1,.1,3.66,8.363,8.363,0,0,1-3.541-.04,2.145,2.145,0,0,0-2.212-.5l-.9-.29c.225.327.452.652.693.989-.734.078-1.466.159-2.187.25-.01-.714-.015-1.429-.006-2.137-1.6-1.046-3.56-.1-5.32-.29.072-.281.218-.842.29-1.12a4.459,4.459,0,0,0-.5.1c.019.259.053.777.072,1.039l-1.17-.012c-.006-.231-.022-.692-.028-.924-.871.035-1.738.069-2.6.137a4.511,4.511,0,0,1-.983-2.219c-.119,0-.352,0-.471-.006a27.453,27.453,0,0,1-.265-5.81,7.227,7.227,0,0,0-1.067,1.551,13.43,13.43,0,0,1-1.594-1.648c-.515-1.251.187-2.821-.8-3.894-.52-.641-5.766-7.377-6.222-9.024-.814-1.217-.343-2.817-.5-4.2-.777-.115-1.548-.237-2.309-.384-.4.119-.786.243-1.167.372-.015,1.376-.044,2.755-.134,4.131-.859,1.288.365.77-3.7,5.841-.087-.184-.265-.549-.353-.733a24.642,24.642,0,0,1-2.63-.065,3.2,3.2,0,0,0-3.95-1.108c-.312-.172-.618-.343-.914-.509-.013.212-.037.643-.053.858-.109-.181-.331-.54-.44-.721-.3.09-.593.187-.877.29.774-2.789.222-5.723.281-8.574a11.376,11.376,0,0,0-2.924-.215,44.081,44.081,0,0,1-8.312-.537c-.122.125-.362.377-.484.5-.734.047-1.463.09-2.184.125a5.2,5.2,0,0,0-3.448-.418,12.8,12.8,0,0,0,.493-1.3c-.1-.646-.315-1.267-.406-1.91a1.424,1.424,0,0,0-.356-2.318,1.86,1.86,0,0,1,.568-1.248q-.061-.407-.094-.805c-.887-1.209-.517,1.013-.717-8.007.06-.634-.459-1.036-.814-1.463-4.807-.67-4.417,1.3-6.187-.615-.043.162-.131.487-.178.649-.758.01-1.513-.006-2.259-.047-.1-.565-.187-1.123-.281-1.682-.322.181-.637.368-.946.559.124-11.736.16-9.488-1.051-12.615-3.814-.219-31.667-1.429-35.711-1.482-.1.989-.2,1.981-.262,2.977-1.7.012-3.385.24-5.079.085.106.243.215.49.334.739.752-.19,1.51-.343,2.287-.462.087.7.165,1.407.243,2.115q-.828.019-1.638.047-.3.276-.589.562a13.856,13.856,0,0,1-4.072.234,5.826,5.826,0,0,1-2.671.752c.109,19.739.109,39.477.318,59.213-.156.015-.471.047-.627.06-.013-1.1-.423-74.887-.38-76.137-.641.117-11.1,1.946-12.459,2.053-.562.462-1.114.933-1.66,1.4q-.033.693-.04,1.4l-.664.2c-.125.359-.262.712-.406,1.064-1.158.7-2.742.222-3.8,1.145-3.076,2.49-6.162,4.974-9.3,7.383.446,6.452.6,12.921.983,19.38a8.514,8.514,0,0,0-.983,1.728l-.742.112q-.16-.505-.3-1c-.412.044-.817.094-1.217.144-.106.437-.209.877-.3,1.32a1.388,1.388,0,0,1-1.139-1.114c-.867-.231-1.286.447-1.379,1.2-.377.047-.746.1-1.1.156.022-.24.062-.714.085-.955-.222-.015-.665-.053-.886-.072-.01-.505-.013-1.011-.013-1.51a1.757,1.757,0,0,1,.175-2.222c-1.588-4.211.43-8.415-1.454-10.843a11.328,11.328,0,0,1-3.361-.09c-.209-.712-.15-1.46-.312-2.172-1.32-.724-2.939-.471-4.393-.6-.01-.265-.028-.8-.038-1.064-1.66-.68-3.513-.455-5.251-.783l-.362-.886c-.387.343-.584,1.008-1.192.967-.062-.253-.19-.758-.253-1.014-.109.028-.327.078-.437.1a1.471,1.471,0,0,1-1.239,1.27,3.9,3.9,0,0,1-1.164-1.513.983.983,0,0,0-.664.924c-.2-.131-.612-.4-.814-.53.038-.268.112-.811.15-1.083a9.2,9.2,0,0,1-1.4,1.828,14.234,14.234,0,0,0-3.8.084,3.215,3.215,0,0,0-.437.771c-.642-.024-12.514.446-15.064,1.186,0,.549,0,1.1.013,1.66-.549.1-1.092.209-1.628.318l-.415.777c-.549-.256-1.1-.509-1.635-.755-.293.212-.584.43-.864.649-.593,0-1.176,0-1.76,0-.047,3.117.1,6.235.031,9.351a2.682,2.682,0,0,1-.736-1.451c.015.465.031.936.05,1.407-.443.035-.877.075-1.3.115-.1-.424-.19-.842-.284-1.254-.006.468-.006.936,0,1.411l-1.3.084c.078-.465.165-.924.256-1.382A2.01,2.01,0,0,1,478,278.352c-.012-.272-.035-.814-.044-1.086-.19.315-.374.637-.552.961-.318-.15-.63-.3-.939-.44-.472.1-.983.48-1.441.172a12.533,12.533,0,0,1-.228-1.289c.225-.035.671-.1.9-.131,0-.268-.01-.808-.013-1.079-.976.065-.771-.9-.867-1.535l.858-.212c.006-.268.022-.808.028-1.076-.961.115-.792-.774-.839-1.411.212-.087.637-.259.849-.347-.013-.287-.037-.864-.053-1.151-.184.006-.559.022-.746.031-.019-.49-.035-.977-.04-1.457l.874-.162c-.094-.584-.013-1.386-.861-1.248q-.093-.576-.169-1.142c.312-.162.627-.325.951-.48-.006-.243-.019-.73-.025-.976-1.036.153-.861-.824-.924-1.513.24-.081.724-.24.967-.322-.015-.24-.047-.717-.062-.958-.921.028-.846-.821-.846-1.473.836-.044.9-.712.9-1.386-.933.09-.964-.671-.767-1.338.6-.24.659-.83.717-1.388-.9.04-.9-.752-.992-1.407.234-.085.7-.256.927-.34.075-.584.028-1.136-.562-1.42-.031-.359-.05-.711-.056-1.064.555-.247.624-.805.667-1.341-1.07-.078-1.3-1.828-.09-1.832.006-.387.019-.767.037-1.148-.227-.031-.68-.09-.9-.122.075-.639.031-1.413.839-1.563,0-.318.012-.63.028-.942-1.058,0-.739-1.07-.824-1.769l.786-.225c0-.4,0-.8.015-1.2l-.808-.187c.006-.512.019-1.024.035-1.529.19-.047.568-.137.759-.181-.006-.4,0-.792.006-1.183-1.148.015-.709-1.186-.771-1.916,1.211-.2.468-1.448.437-2.209-2.2-.162-4.334,1.111-6.5.381.006-1.723.006-3.445-.019-5.164.44-.312.883-.621,1.336-.93-.044-.172-.134-.521-.178-.693-.5-.231-1.338-.119-1.438-.805-.24-1.154.137-2.487-.78-3.42-.015-.714-.01-1.426.006-2.134a17.8,17.8,0,0,0-6.019-.015c-.053.643.253,1.438-.253,1.96-1.728.115-3.46-.172-5.186-.215.069-.3.14-.587.218-.88-.4.085-.792.175-1.179.268-.194.25-.387.5-.584.746a2.719,2.719,0,0,1-.739-.821c-.044.125-.128.377-.168.5-1.076.159-2.169-.062-3.236.137a15.878,15.878,0,0,1-2.992.805c-.2-.184-.384-.365-.565-.543-.359.284-.714.571-1.061.861a1.726,1.726,0,0,1-1.189,1.938c-4.4-.714-4.481-.17-8.25.687a36.177,36.177,0,0,1-.193,5.139,9.2,9.2,0,0,0,0,2.665c-1.632.162-3.251.412-4.889.455-.122.6-.24,1.2-.365,1.81.717.065,1.438.131,2.165.184-.028.646-.056,1.295-.072,1.947-.63.015-1.261.044-1.882.081-.028.455-.053.911-.075,1.373.712.01,1.423.015,2.14.028-.053.53-.094,1.07-.14,1.6-.605.006-1.208.012-1.8.028-.072.452-.14.908-.2,1.37.7,0,1.4.01,2.112,0-.022.543-.047,1.083-.06,1.632-.612.019-1.22.04-1.825.062-.075.459-.14.921-.2,1.388.714,0,1.432.012,2.156.022-.015.412-.025.824-.031,1.242-.649.056-1.289.115-1.928.168q-.117.623-.215,1.254c.724.056,1.448.109,2.181.162-.012.231-.034.7-.044.93-.643.025-1.276.056-1.907.087-.122.537-.234,1.076-.35,1.62.593.031,1.189.065,1.791.1-.015.412-.028.824-.031,1.242-.477.044-.949.087-1.413.14-.065.427-.128.861-.181,1.295.474.04.946.075,1.432.122q.01.636.037,1.283c-.456.028-.9.06-1.341.1-.012.412-.012.827-.01,1.248.384.069.771.156,1.158.262a10.439,10.439,0,0,1,.359,1.2c-.515.015-1.023.031-1.526.053,0,.465.012.936.028,1.407q.693-.052,1.4-.09c-.031.459-.06.924-.078,1.388q-.674.052-1.329.112c0,.443.013.892.025,1.345q.726,0,1.47.01c0,.446.006.9.022,1.348-.487.025-.961.056-1.435.09-.044.424-.085.855-.118,1.289.546.031,1.1.069,1.657.106-.063.409-.122.821-.172,1.236-.452.047-.9.1-1.338.156-.04.4-.075.805-.11,1.211.555.05,1.117.106,1.678.168-.025.309-.078.924-.106,1.233-.471.022-.93.056-1.391.09-.063.446-.125.892-.175,1.348.477-.01.964-.012,1.457-.012-.053.452-.106.9-.144,1.366-.387.035-.767.069-1.142.11-.06.44-.1.892-.153,1.338.559,0,1.114,0,1.685,0-.231.462-.452.933-.674,1.4l-.9.047c-.019.3-.056.9-.072,1.2.5.081,1,.162,1.513.253-.2.409-.406.821-.6,1.236-.2.04-.6.115-.8.156-.019.3-.056.9-.075,1.2.465.025.933.05,1.41.081-.084.452-.172.908-.243,1.366-.377.037-.752.081-1.12.125q-.052.6-.084,1.217c.512.037,1.026.075,1.551.122-.234.362-.459.727-.684,1.1l-.846.025q0,.763.022,1.535c.405.025.817.053,1.233.087-.01.247-.025.739-.035.986a2.953,2.953,0,0,0-1.748,1.354,10.349,10.349,0,0,0,2.134.571,10.723,10.723,0,0,1-1.947,1.832l.537.786c.559.012,1.117.035,1.685.075-.372.118-.759.215-1.123.331a10.051,10.051,0,0,1-.827,1.357c-.409.134-.839.193-1.251.287-.078-1.832-.019-3.66-.06-5.488a8.845,8.845,0,0,1-2.952-.187c-.1.062-.3.184-.4.247a10.565,10.565,0,0,1-1.963-.29,5.183,5.183,0,0,1-1.158.858c-.39-.961.871-2.325-.352-2.886.035-.58.013-1.229.6-1.56a3.254,3.254,0,0,0-.593-1.423l.53-.443c-.122-.106-.365-.322-.484-.427.59-.225.449-.824.53-1.289-.571-.3-.568-.933-.649-1.479.162-.094.487-.277.649-.372-.037-.327-.069-.655-.094-.977-.368-.422-.734-.852-1.089-1.273.359-.181.742-.331,1.1-.537.044-.377.085-.752.115-1.126l-1.179.053q.01-.7.038-1.386l1.008-.125c-.012-.424-.019-.846-.019-1.261-.365-.01-.727-.015-1.086-.022,0-.434.01-.864.022-1.295.362-.065.727-.125,1.1-.184-.015-.384-.028-.764-.031-1.142-.372-.053-.734-.1-1.092-.147q.018-.683.056-1.357.548-.061,1.114-.112c-.038-.384-.069-.764-.094-1.139-.365-.062-.727-.122-1.083-.178,0-.4.015-.792.047-1.186a10.274,10.274,0,0,1,1.1-.312c-.025-.393-.047-.783-.062-1.17-.362,0-.721.01-1.073.022-.01-.452-.013-.9-.01-1.351q.553-.112,1.114-.215c-.037-.424-.069-.849-.1-1.27l-.986.028c-.028-.437-.05-.871-.069-1.3.374-.075.752-.147,1.133-.218-.015-.3-.047-.889-.065-1.189-.262.01-.786.022-1.048.028-.01-.437-.01-.874-.006-1.3.372-.122.746-.24,1.126-.356-.137-.515-.259-1.024-.381-1.529-.256.056-.505.119-.752.184.128-3.223-.1-6.443-.134-9.67.037-.839-.709-1.4-.964-2.147-.253-1.532.134-3.1-.168-4.624-1.292-1.088-8.821.281-9.645-1.264-.25-1.233-.228-2.5-.406-3.744a16.644,16.644,0,0,0-3.333-.359,20.6,20.6,0,0,0-.143-2.11,7.865,7.865,0,0,0-1.061-.577c-2.443.858-5.005.109-7.511.178-2.565-.337-5,.992-7.554.714-.5,3.936.605,3.783-1.12,4.634a7.849,7.849,0,0,0-4.322-.162c-.327,1.391-1.907,1.139-2.911.736-.1.134-.306.4-.406.53-1.628.2-3.242.5-4.849.821-.028.209-.084.634-.112.842.247.01.734.025.977.031-.028,1.516-.04,3.03,0,4.549a4.708,4.708,0,0,0-1.928.3,10.713,10.713,0,0,0-.227,1.192q1.058,0,2.135,0c.028.487.06.979.1,1.473-.668.09-1.336.178-1.994.275-.075.422-.143.849-.209,1.276.739-.022,1.479-.044,2.228-.062,0,.659.006,1.32.015,1.985-.652.031-1.3.062-1.947.081-.1.471-.19.942-.275,1.42.739-.022,1.482-.044,2.228-.06,0,.415.01.833.022,1.258-.705.081-1.4.172-2.1.268q-.033.636-.047,1.283,1.067.01,2.147.025c-.006.406-.01.814-.006,1.226-.7.085-1.395.172-2.09.259-.019.306-.06.911-.078,1.214.724.025,1.451.047,2.187.075-.013.418-.022.842-.025,1.27l-.88.159c0,.424.006.855.015,1.289.222,0,.662,0,.88.006l.087,1.186c-.234.053-.709.165-.946.222.015.484.034.974.062,1.466l.871.15c.01.356.025.712.044,1.076l-1,.078c-.253,1,.58,1.6,1.233,2.184-.365.087-.721.175-1.073.265,0,.415.006.833.015,1.254l.914.062c.015.418.04.839.069,1.267-.35.053-.693.109-1.033.165q.019.6.056,1.2l.839.065c.037.277.112.833.147,1.111q-.473.187-.936.384c0,.381,0,.771.006,1.161.324.131.655.268.989.409-.053.247-.156.742-.209.989l-.864.272c.112.462.227.924.352,1.391-.749-.087-1.495-.175-2.24-.253.072-1.613-.4-3.179-.365-4.789-.122-.128-.359-.387-.477-.518,0,0-2.322-64.39-2.431-93.763,1.452-.284,12.776-.263,6.874-7.423.665-.639,1.423-1.179,2.069-1.841.206-1.251-.069-2.546.25-3.785a16.872,16.872,0,0,0,.543-3.345,8.534,8.534,0,0,1-.684-.789c.072-.49.243-.964.272-1.457a4.125,4.125,0,0,0-2.992-.858c-.293-.206-.58-.412-.864-.618.423-5.126.394-3.694-.867-5.486.109-.119.324-.356.43-.474q-.81-.22-1.607-.449c.037.281.115.842.156,1.126-.527-.1-1.048-.209-1.566-.315.087-.228.262-.68.35-.908-.25.015-.742.044-.989.06a41.766,41.766,0,0,0,.181-4.459c-.147.01-.44.028-.587.04a15.1,15.1,0,0,0-.137-2.49c-.325-.88-1.769-1.366-1.114-2.462.15-.927-.574-1.551-.824-2.347-.1-24.407.084-32.934.084-32.934.659-1.208,1.9-2.412,1.551-3.9-.649-1.245-1.863-2.1-2.437-3.4,1.428-37.733-1-15.014-.187-33.78.087-1.036-.858-1.775-.886-2.78-.747-31.04,1-26.034-.986-28.154-1.179,1.947-1.492,26.651-1.535,29-.284.259-.559.518-.833.777.19,3.27-.14,6.534-.175,9.8-1.8,1.334-.07,10.6-.877,25.105-.384,2.3-4.882,3.081-1.011,6.952-.053,2.142-.226,36.9-.231,37.546a6.237,6.237,0,0,0-2.178.724c.1,1.311.119,2.624.134,3.941l.5.43a20.757,20.757,0,0,1,.094,3.086c-.165-.122-.5-.365-.659-.487.047.115.14.34.187.455a3.856,3.856,0,0,1-2.618.053c-.065.134-.2.406-.268.543a5.119,5.119,0,0,0-2.381.8c-.352,1.445,0,2.946-.144,4.412-1.176.755-2.771.493-3.853,1.46a4.528,4.528,0,0,0,.811,1.435c-.374.069-.746.14-1.111.212a15.231,15.231,0,0,0,.434,3.354c.331,1.407.05,2.861.209,4.281a8.794,8.794,0,0,0,2.15,1.935c-4.311,4.408.392,7.606,5.919,7.242,1.72,1.517-1.4,67.561-1.47,68.2-.814-.212-1.448.312-2.06.749-.022.212-.062.634-.084.846-1,.015-2.01.025-3.008.047-.262-.4-.521-.8-.764-1.2-1.223-.5-2.562-.237-3.835-.406-.212-.218-.421-.437-.624-.649-.106.172-.318.509-.424.68-1.591-.175-3.261-.01-4.786-.555-.527.131-1.049.281-1.56.449l1.2.187c-.287.284-.577.568-.858.858-.013,1.7-.006,3.395-.01,5.092-2.137.546-4.318-.075-6.472-.165-.054-7.77.075-13.723.075-13.723,3.036.334,6.088.484,9.142.565.019.6.053,1.211.087,1.819a3.8,3.8,0,0,0,1.535-.019c.5-.78.325-1.981,1.366-2.34.178.087.534.259.711.347.222-.8.78-1.928-.2-2.443-1.956.4-1.131,1.085-6.056.814-5.727-2.434-14.113-1.259-19.311-2.362-1.648.955-3.395-.605-5.067.259-6.8-1.348-18.216-1.1-20.431-.54-.771-3.058.412-6.2-.327-9.267.455.128.924.265,1.382.406,2.823-1.644,11.675-3.386,12.737-3.56-.315-.605-.555-1.236-.839-1.847,0,0-13.784,2.709-15.614,3.017-1.4.187-2.427,1.267-3.688,1.813-.546-.212-1.1-.412-1.641-.609-.377.11-.755.215-1.126.325a18.4,18.4,0,0,0-.493,1.791c.487-.053.974-.106,1.466-.156,0,.534.01,1.076.019,1.616.109.147.327.437.437.584.437-.047.874-.087,1.316-.128a8.4,8.4,0,0,0,.384-1.916c1.036-.193,2.062-.427,3.1-.637-.2.327-.4.659-.6.989.2.094.605.287.805.384.212,2.456-.087,4.917-.01,7.376a3.5,3.5,0,0,0-2.194.7c-.143-.128-.424-.387-.565-.515-.159.449-.315,1.22-.974.811a.863.863,0,0,1,.2-1.042c-.1.094-.3.281-.4.372q-.262.421-.515.846c-.927-.786-2.178-.534-3.242-.25-.514,4.322-.5-1.711-.215,9.342-.474.019-.942.037-1.407.062a5.146,5.146,0,0,0,.181,2.646c-.2.06-.6.175-.8.234-.147.484-.293.971-.44,1.457-.5-.15-.992-.3-1.482-.452.006.275.022.824.028,1.1a3.363,3.363,0,0,0,2.05.4c-.143.4-.293.789-.43,1.192.268.065.8.19,1.07.253.115.662-.664.9-1.042,1.289.056.315.119.637.184.961l.927.087c-.031.147-.087.437-.119.584-.387.406-.764.821-1.145,1.233.387.175.78.356,1.173.543.006.14.015.422.022.562a4.838,4.838,0,0,0-1.055,1.728l1.12.035c-.019.3-.031.6-.04.9l-.749.459c.106.106.312.325.415.43-.312.168-.621.343-.927.521.284.05.849.153,1.133.206.484.789-.621,1.373-1.033,1.96.5.234.989.474,1.485.73a5.225,5.225,0,0,1-1.226.687c-.06.374-.11.752-.159,1.133.449.081.9.168,1.361.262a13.12,13.12,0,0,1-1.535,1.978l1.4.187c-.25.465-.493.939-.73,1.416-.106-.078-.315-.228-.421-.3-.031.415-.06.836-.081,1.261.377-.06.752-.115,1.139-.156.01.253.031.755.044,1-.365.069-.724.137-1.079.212q-.047.482-.084.974.529.085,1.067.178c.028.318.062.639.1.964-.44.2-.867.4-1.3.605a4.172,4.172,0,0,1,.237,2.936c.237.035.709.1.946.134,0,.337,0,.677.006,1.024l-.88.037q-.131.553-.253,1.114c.256.015.767.044,1.024.056a1.907,1.907,0,0,1-.849,1.52c.118.215.24.431.365.652.737.742.072,1.535-.406,2.2l.761.275c.022.377.047.759.078,1.145-.322.3-.643.6-.958.9l.861.562c-.06.6-.131,1.192-.2,1.791l-.559-.025a5.9,5.9,0,0,1,1.014,1.329c-.334.29-.889.465-.911.989.315.462.677.889,1.029,1.332-.25.122-.746.368-1,.49.309.667.618,1.341.9,2.025l-.63.247c-.069.322-.14.649-.209.977.277.162.562.325.849.5-.181.471-.352.952-.521,1.432-.165.047-.5.144-.665.19.387.225,1.532.318,1.042.986-1.183.085-2.362.131-3.536.281-.031,1.176-.019,2.359,0,3.541-.487.04-.967.09-1.445.15.013.234.035.7.047.93-.247-.137-.487-.272-.724-.4-.509.384-1.026.755-1.566,1.089.2-.05.6-.143.8-.193a21.883,21.883,0,0,0-1.885,5.164l-.487-.09a4.616,4.616,0,0,0,.362.883c-.181.022-.546.069-.73.09-.09.471-.175.955-.262,1.435a9.659,9.659,0,0,1-2.534-.964c.056-.356.112-.712.172-1.061-.181.247-.362.5-.534.749a18.048,18.048,0,0,1-4.64-1.825c-.677.128-1.357.259-2.025.409a7.1,7.1,0,0,1-.927-1.928,25.119,25.119,0,0,0-4.209-.409c-.078.165-.24.493-.318.659-.568-.209-1.126-.418-1.678-.649-.4.081-.789.168-1.179.259-.8-5.953.136-14.8-.767-16.547a11.028,11.028,0,0,1-3.024-.162,44.078,44.078,0,0,1-.331-6.072c.165-2.377-.767-4.627-1.017-6.961a24.012,24.012,0,0,0-.243,3.311c-.047-.215-.143-.643-.193-.858l-.5-.187a4.582,4.582,0,0,0-.662-2.206,30.421,30.421,0,0,0-1.264,3.258c.01-.247.028-.742.037-.989a5.793,5.793,0,0,1-.977-2.627c-.153,1.341-.134,2.7-.306,4.038-.231.022-.69.065-.917.09-.085.184-.253.559-.337.746,0-1.161-.012-2.318.028-3.476-.864-.056-1.061.705-1.164,1.413l-.789-.2c.053.792.119,1.585.206,2.377-4.86.915-4.913-1.759-9.4.175-1.507.671-3.189.618-4.784.921.125,1.27.079-.31,0,6.839-.771-.172-1.61-.911-2.381-.452-1.067.755-2.265-.309-3.432-.256a48.408,48.408,0,0,0-.234-6.091c-.455-.24-.914-.477-1.364-.714.015-.54.031-1.076.053-1.61a16.216,16.216,0,0,1,3.991-.424c.227-.253.455-.5.693-.746-.871-10.284,1.6-7.613-5.151-8.824,0-2,.864-4.115-.265-5.982a9.5,9.5,0,0,0-.892-.437c-.24-.365-.477-.727-.714-1.086-3.436,0-7.24.475-9.579-1.351-.268.693-.509,1.395-.777,2.087a9.67,9.67,0,0,0-4.537-.262c-.306-.312-.609-.621-.9-.93-.727.047-1.457.069-2.184.09q.065-1,.143-1.985c-.365.053-.73.109-1.089.168a9.961,9.961,0,0,0,.206,2.949c-.368.555-.73,1.117-1.058,1.7a26.277,26.277,0,0,1,.422,3.083l-.584.035a2.594,2.594,0,0,1,.3,2.387c-.349-.031-.7-.075-1.036-.128a8.424,8.424,0,0,1-2.128.24c-1.322.5-1.869-.887-1.37,8.83.462.065.924.131,1.388.2.031.58.062,1.164.1,1.75-1.7-.031-3.407-.05-5.108-.031-1.454-.01-2.842.63-4.3.456-.094.122-.277.368-.372.49-.493-.112-.983-.218-1.473-.331a3.277,3.277,0,0,0-.527,2.272,5.116,5.116,0,0,0-1.283.565c-.14.749-.143,1.516-.315,2.262-.455.119-.921.178-1.379.262-.028-.256-.081-.771-.109-1.026-.48-.019-.955-.031-1.429-.04.025.24.072.724.094.964l-30.457.833c-1.083.193-1.538-1.154-2.53-1.273-1.429-.225-2.874-.306-4.3-.515-1.064-.094-1.657-1.385-2.8-1.164-1.223.119-2.562-.215-3.7.312l-.29.817c-8.233,1.012-5.232-.582-18.824-.742-1.051-.025-2.365.63-3.139-.372-.072.193-.215.584-.287.78-2.928.508-.691-.1-5.545.877-.028.356-.053.714-.078,1.079-.641-.018-14.169.056-16.175-.68-.3.041-7.044.274-7.495.225-.366.538-.769.453-5.451,1.27-.019.746-.044,1.491-.081,2.24q-1.774.052-3.548.044c-.075-.094-.225-.275-.3-.368-3.11,1.161-.273-2-5.635-1.495a4.9,4.9,0,0,0-.225,1.866q-1.053-.018-2.1-.012c-.047-.25-.137-.746-.184-1a2.737,2.737,0,0,0-1.283.98c-2.783.081-5.573-.028-8.356.062a14.135,14.135,0,0,0-.312,4.262c-.455-.062-.908-.118-1.363-.175.031-.618.056-1.236.053-1.844-.646.555.131,1.579-.568,2.069-.474.409-1.158.287-1.732.406.01-.281.025-.842.034-1.123.593-.04,1.189-.075,1.782-.128a9.119,9.119,0,0,0-2.153-.253c.031.381.062.767.094,1.158q-.383.332-.761.684a13.715,13.715,0,0,1,.065,2.122c-.659.05-1.495-.172-1.81.605-.268-.334-.54-.668-.811-.989a3.589,3.589,0,0,0-.337,2.98c-1.5-.48-3.061-.056-4.555.231-.122.39-.243.786-.359,1.189.125,2.412.156,4.846.044,7.267a7.423,7.423,0,0,1,.034,2.337,5.9,5.9,0,0,1-.078,2.337c.062.134.19.4.253.537-.08,1.6.218,27.227.131,27.736l-2.218-.243c-.225-.315-.452-.627-.68-.933q-.44.3-.88.609c.035-.7.062-1.388.09-2.078-3.545.131-7.1.228-10.643.134-.961-.842-2.39-.368-3.545-.384-.724-.05-.677.871-.705,1.373.037,2.955.062,5.913.047,8.871-.2-.24-.4-.48-.593-.714-1.245,1.616-.562,3.694-.643,5.56-2.243-.056-4.487-.01-6.727-.05-.022-1.108-.072-2.209-.134-3.311-1.223-.056-2.761.468-3.641-.664a2.137,2.137,0,0,0-1.91.652c-1.192-.736-2.462.159-3.507.742-1.568-.429-.737-.874-3.183.427a.563.563,0,0,1,.137.761,12.884,12.884,0,0,1,.24,1.638q-5.467-.163-10.93.1V374.4h1640V332.72C1639.448,332.717,1638.923,332.717,1638.417,332.72ZM374.75,150.458c.409.281-.047,1.049-.484.783C373.929,150.944,374.329,150.267,374.75,150.458ZM320.929,276.3c-.889,1.552-.067,4.228-.443,7.146.643.165.49.792.465,1.289a9.123,9.123,0,0,0-.6,1.436c.487.1.971.194,1.466.3a4.528,4.528,0,0,1-.512,1.557c-.222-.477-.056-1.323-.755-1.357v1.22a12.363,12.363,0,0,1-3.386-1.173,4.348,4.348,0,0,0-.427-1.573l.6-.047c-.2-.786-.39-1.57-.574-2.356.147-.087.443-.268.593-.356.028-.739-.518-1.267-.671-1.916.153-.1.459-.306.612-.405-.178-.709-.356-1.413-.587-2.1l.643-.225a20.807,20.807,0,0,1-.562-2.134c.134-.035.406-.1.54-.131-.315-.758-.7-1.638-.106-2.372a15.709,15.709,0,0,1-.3-1.669c-.153.094-.462.287-.614.381-.362-.736.646-.774,1.058-1.036-.175-.546-.387-1.1-.989-1.276-.568-.714.4-.811.88-.967a7.045,7.045,0,0,1-.262-1.644c-.782.782-.676.334-.811-.325a4.76,4.76,0,0,0,1.164-.487c-.11-.253-.331-.755-.443-1.008-.125.022-.374.062-.5.081-.05-.24-.15-.724-.2-.967.352-.09.705-.178,1.064-.262a5,5,0,0,1-.06-2.627q-.164-.505-.315-1c-.147.078-.437.237-.58.315-.015-.268-.047-.8-.06-1.067.35-.1.705-.2,1.064-.29a1.812,1.812,0,0,1-.39-1.195l-.593.287a2.006,2.006,0,0,1,.112-1.366l.455.3c.072-.181.222-.54.3-.721-.15-.456-.162-1.089-.8-.983l.087-1.1a11.829,11.829,0,0,1,1.491.771c.265-.119.534-.231.808-.343a5.343,5.343,0,0,0,1.57,1.3,2.6,2.6,0,0,0,.143,1.429c-.218,2.106.09,4.228-.109,6.344a7.189,7.189,0,0,1-.053,2.8c.449.106.9.209,1.351.322-.04.181-.128.543-.168.724-.256-.012-.767-.044-1.021-.06-.05.372-.094.746-.128,1.126a4.436,4.436,0,0,1-.031,2.512c.365.159,1.345.418.749.964l-.562.19q-.135.58-.256,1.179c.515.165,1.036.318,1.56.477-.2.543-.783.577-1.258.689-.05.427-.1.861-.14,1.295ZM334.5,251.17c-.372.128-.736.265-1.1.409-1.161-.343-1.379-1.57-1.691-2.571-1.029.25-2.281.721-2.605,1.844-.559.184-1.12.374-1.663.6-1.767-1.087.222-.247-4.337-.534a1.707,1.707,0,0,1-1.545.662c-.256.518-.137,1.264-.512,1.669-1.2.172-2.384.9-3.613.487a9.675,9.675,0,0,1-1.111-1.416c.34-.09.684-.181,1.029-.262a15.583,15.583,0,0,1-.9-2.212,9.365,9.365,0,0,0,2.752.115c.006-.427.019-.849.035-1.27-.677.015-1.351.015-2.019-.015.272-.412.564-.805.861-1.2a7.624,7.624,0,0,1-1.8-1.953,4.235,4.235,0,0,0-.122-3.129c.168-2.187-.312-4.412.19-6.574,1.726-.222,14.05.632,14.7.7a4.421,4.421,0,0,0,1.251,1.092c.368-.268.686-.593,1.042-.883.209.749.175,1.988,1.3,1.8C334.56,238.665,334.5,251,334.5,251.17Z" fill="#f3f0f0"/>
    <path id="Path_745" data-name="Path 745" d="M1362.49,245.076h0" transform="translate(-489.652 -75.999)" fill="#f3f0f0"/>
  </g>
</svg>
